<svg width="174" height="163" viewBox="0 0 174 163" fill="none" xmlns="http://www.w3.org/2000/svg">
<g filter="url(#filter0_d_19_1913)">
<path d="M7.57339 106.786L71.5825 82.7905C75.1991 81.4347 80.8749 81.8439 84.2597 83.7045L159.111 124.85C162.496 126.711 162.308 129.318 158.691 130.674L94.6821 154.669L7.57339 106.786Z" fill="#D9D9D9" stroke="black" stroke-width="4.66238"/>
<path d="M5.46052 101.189L70.561 76.7846C74.7805 75.2028 81.4022 75.6803 85.3511 77.851L160.202 118.997C164.151 121.167 163.932 124.209 159.713 125.791L94.6121 150.195L5.46052 101.189Z" fill="#FFFBEE" stroke="black" stroke-width="2.33119"/>
<path d="M5.46052 96.426L70.561 72.0215C74.7805 70.4398 81.4022 70.9172 85.3511 73.0879L160.202 114.234C164.151 116.404 163.932 119.446 159.713 121.028L94.6121 145.432L5.46052 96.426Z" fill="#FFFBEE" stroke="black" stroke-width="2.33119"/>
<path d="M5.46052 92.3425L70.561 67.9381C74.7805 66.3563 81.4022 66.8338 85.3511 69.0045L160.202 110.15C164.151 112.321 163.932 115.363 159.713 116.944L94.6121 141.349L5.46052 92.3425Z" fill="#FFFBEE" stroke="black" stroke-width="2.33119"/>
<path d="M8.40144 85.4339C8.11646 85.2794 8.12948 85.0612 8.43048 84.9474L73.363 60.3825C76.9945 59.0087 82.7242 59.426 86.1095 61.3108L163.009 104.127C166.359 105.992 166.142 108.589 162.523 109.935L97.8803 133.971L8.40144 85.4339Z" fill="#FF1F53" stroke="black" stroke-width="4.66238"/>
<path d="M32.3993 86.9476C30.6946 86.0206 30.7732 84.7145 32.5748 84.0315L71.9521 69.1044C73.7658 68.4169 76.6297 68.624 78.3243 69.5653L141.977 104.923C143.657 105.856 143.549 107.157 141.735 107.831L102.833 122.269C101.031 122.938 98.2183 122.737 96.5275 121.817L32.3993 86.9476Z" fill="#FF1F53" stroke="black" stroke-width="2.33119"/>
<path d="M54.5916 87.3953C52.8452 86.4667 52.9116 85.1419 54.739 84.4543L70.4177 78.5553C72.2482 77.8666 75.1329 78.0854 76.8156 79.0406L80.5648 81.1688C82.2054 82.1001 82.0859 83.3834 80.2961 84.0522L64.7213 89.8718C62.9361 90.5389 60.1461 90.3488 58.4447 89.4441L54.5916 87.3953Z" fill="#FF01C4" fill-opacity="0.5" stroke="black" stroke-width="2.33119"/>
<path d="M71.8299 97.6348C70.0835 96.7062 70.1499 95.3814 71.9773 94.6938L87.656 88.7948C89.4865 88.1061 92.3712 88.3249 94.0539 89.2801L97.803 91.4083C99.4437 92.3396 99.3241 93.6229 97.5344 94.2917L81.9596 100.111C80.1744 100.778 77.3844 100.588 75.683 99.6836L71.8299 97.6348Z" fill="#FF01C4" fill-opacity="0.5" stroke="black" stroke-width="2.33119"/>
<path d="M95.5964 152.027C92.5257 145.167 94.2002 138.596 98.1518 134.085C98.4055 133.795 98.3336 133.34 97.9946 133.158L11.1723 86.4339C9.4221 85.492 7.21881 85.7315 5.95563 87.2661C-0.897316 95.5911 3.8115 103.118 7.63505 106.638L93.5403 154.163C94.6564 154.78 96.1175 153.191 95.5964 152.027Z" fill="#FF01C4" fill-opacity="0.5" stroke="black" stroke-width="4.66238" stroke-linecap="round"/>
<path d="M25.4149 94.388C20.2051 95.4088 15.6679 107.183 23.2694 114.805" stroke="black" stroke-width="2.33119" stroke-linecap="round"/>
<path d="M35.2748 99.151C30.065 100.172 25.5278 111.946 33.1292 119.568" stroke="black" stroke-width="2.33119" stroke-linecap="round"/>
<path d="M89.2196 128.755C84.0098 129.776 79.4726 141.549 87.0741 149.172" stroke="black" stroke-width="2.33119" stroke-linecap="round"/>
<path d="M83.0878 126.714C77.878 127.735 73.3408 139.509 80.9422 147.131" stroke="black" stroke-width="2.33119" stroke-linecap="round"/>
</g>
<g filter="url(#filter1_d_19_1913)">
<path d="M-76.8939 54.6643L-12.8848 30.669C-9.26815 29.3132 -3.59238 29.7224 -0.207614 31.583L74.6438 72.7287C78.0285 74.5893 77.8405 77.1966 74.2239 78.5524L10.2148 102.548L-76.8939 54.6643Z" fill="#D9D9D9" stroke="black" stroke-width="4.66238"/>
<path d="M-79.0068 49.0676L-13.9062 24.6631C-9.68681 23.0814 -3.06508 23.5588 0.883813 25.7295L75.7352 66.8751C79.6841 69.0458 79.4648 72.0878 75.2453 73.6695L10.1448 98.074L-79.0068 49.0676Z" fill="#FFFBEE" stroke="black" stroke-width="2.33119"/>
<path d="M-79.0068 44.3045L-13.9062 19.9001C-9.68681 18.3183 -3.06508 18.7957 0.883813 20.9664L75.7352 62.1121C79.6841 64.2827 79.4648 67.3247 75.2453 68.9065L10.1448 93.3109L-79.0068 44.3045Z" fill="#FFFBEE" stroke="black" stroke-width="2.33119"/>
<path d="M-79.0068 40.2211L-13.9062 15.8166C-9.68681 14.2349 -3.06508 14.7123 0.883813 16.883L75.7352 58.0286C79.6841 60.1993 79.4648 63.2413 75.2453 64.823L10.1448 89.2275L-79.0068 40.2211Z" fill="#FFFBEE" stroke="black" stroke-width="2.33119"/>
<path d="M-76.0658 33.3125C-76.3508 33.1579 -76.3378 32.9398 -76.0368 32.8259L-11.1043 8.26108C-7.47281 6.88725 -1.74307 7.30453 1.64223 9.18938L78.5417 52.0051C81.8922 53.8706 81.6747 56.4677 78.0553 57.8135L13.413 81.8497L-76.0658 33.3125Z" fill="#7B5CF7" stroke="black" stroke-width="4.66238"/>
<path d="M-52.0675 34.8262C-53.7722 33.8992 -53.6936 32.593 -51.892 31.91L-12.5147 16.9829C-10.701 16.2954 -7.83706 16.5025 -6.14254 17.4438L57.5102 52.8018C59.1902 53.735 59.082 55.036 57.2683 55.7091L18.3665 70.148C16.5642 70.817 13.7515 70.6153 12.0607 69.6959L-52.0675 34.8262Z" fill="#7B5CF7" stroke="black" stroke-width="2.33119"/>
<path d="M-29.8752 35.2738C-31.6216 34.3452 -31.5552 33.0204 -29.7278 32.3329L-14.0491 26.4338C-12.2186 25.7451 -9.33392 25.9639 -7.65121 26.9191L-3.90204 29.0473C-2.26138 29.9786 -2.38094 31.262 -4.17068 31.9307L-19.7455 37.7504C-21.5307 38.4174 -24.3207 38.2273 -26.0221 37.3227L-29.8752 35.2738Z" fill="#4D21FF" stroke="black" stroke-width="2.33119"/>
<path d="M-12.6369 45.5133C-14.3833 44.5847 -14.3169 43.2599 -12.4895 42.5724L3.18921 36.6733C5.01969 35.9846 7.90436 36.2035 9.58707 37.1586L13.3362 39.2868C14.9769 40.2181 14.8573 41.5015 13.0676 42.1702L-2.50717 47.9899C-4.29239 48.6569 -7.08245 48.4668 -8.78378 47.5622L-12.6369 45.5133Z" fill="#4D21FF" stroke="black" stroke-width="2.33119"/>
<path d="M11.1296 99.9052C8.0589 93.0456 9.73343 86.4742 13.6851 81.9636C13.9387 81.674 13.8668 81.2188 13.5278 81.0364L-73.2945 34.3124C-75.0447 33.3705 -77.248 33.6101 -78.5112 35.1446C-85.3641 43.4697 -80.6553 50.9966 -76.8317 54.5168L9.07352 102.041C10.1896 102.659 11.6507 101.069 11.1296 99.9052Z" fill="#4D21FF" stroke="black" stroke-width="4.66238" stroke-linecap="round"/>
<path d="M4.75283 76.6334C-0.45699 77.6543 -4.99416 89.428 2.60727 97.0503" stroke="black" stroke-width="2.33119" stroke-linecap="round"/>
</g>
<g filter="url(#filter2_d_19_1913)">
<path d="M11.2191 35.9085L53.3681 20.1956C56.9872 18.8465 62.6685 19.2546 66.0577 21.1072L114.29 47.4731C117.679 49.3257 117.492 51.9214 113.873 53.2705L71.7242 68.9834L11.2191 35.9085Z" fill="#D9D9D9" stroke="black" stroke-width="4.66238"/>
<path d="M9.10419 31.9215L52.3453 15.8015C56.5677 14.2275 63.1959 14.7036 67.1498 16.8651L115.382 43.2309C119.336 45.3923 119.118 48.4206 114.896 49.9946L71.6548 66.1146L9.10419 31.9215Z" fill="#FFFBEE" stroke="black" stroke-width="2.33119"/>
<path d="M9.10419 28.5664L52.3453 12.4464C56.5677 10.8724 63.1959 11.3485 67.1498 13.51L115.382 39.8758C119.336 42.0372 119.118 45.0655 114.896 46.6395L71.6548 62.7595L9.10419 28.5664Z" fill="#FFFBEE" stroke="black" stroke-width="2.33119"/>
<path d="M9.10419 25.69L52.3453 9.57003C56.5677 7.99597 63.1959 8.47214 67.1498 10.6336L115.382 36.9994C119.336 39.1608 119.118 42.189 114.896 43.7631L71.6548 59.8831L9.10419 25.69Z" fill="#FFFBEE" stroke="black" stroke-width="2.33119"/>
<path d="M11.9595 20.9468C11.6742 20.7929 11.687 20.5757 11.9882 20.4624L54.6132 4.42635C58.2471 3.05921 63.9825 3.47539 67.3721 5.35218L117.073 32.8711C120.428 34.7285 120.212 37.3139 116.59 38.6532L73.9871 54.4066L11.9595 20.9468Z" fill="#00D37C" stroke="black" stroke-width="4.66238"/>
<path d="M29.091 22.3774C27.3841 21.4544 27.4619 20.1541 29.2648 19.4745L54.6008 9.92341C56.4157 9.23922 59.2825 9.44582 60.9792 10.3831L103.677 33.9691C105.359 34.8984 105.251 36.1934 103.436 36.8633L78.4287 46.0937C76.6252 46.7594 73.8097 46.5583 72.1167 45.6428L29.091 22.3774Z" fill="#00D37C" stroke="black" stroke-width="2.33119"/>
<path d="M44.8421 22.695C43.0935 21.7704 43.159 20.4515 44.9877 19.7673L53.4977 16.5832C55.3295 15.8979 58.217 16.1161 59.9019 17.0672L60.2057 17.2387C61.8485 18.166 61.7296 19.4436 59.9387 20.109L51.4164 23.2758C49.63 23.9396 46.8372 23.75 45.1337 22.8492L44.8421 22.695Z" fill="#D1FF7D" stroke="black" stroke-width="2.33119"/>
<path d="M57.052 29.9078C55.3034 28.9831 55.369 27.6642 57.1976 26.9801L65.7077 23.796C67.5394 23.1106 70.4269 23.3288 72.1118 24.2799L72.4157 24.4515C74.0584 25.3788 73.9396 26.6563 72.1486 27.3218L63.6263 30.4886C61.8399 31.1524 59.0472 30.9627 57.3437 30.062L57.052 29.9078Z" fill="#D1FF7D" stroke="black" stroke-width="2.33119"/>
<path d="M71.7237 66.0663C70.4706 61.9182 71.6101 58.0299 73.9929 55.2221C74.2428 54.9276 74.1708 54.4705 73.8303 54.2882L13.3729 21.9333C11.6282 20.9996 9.40596 21.217 8.25348 22.8256C4.26958 28.3862 7.43512 33.3428 10.0266 35.7153L69.3689 68.3626C70.4866 68.9776 72.0926 67.2875 71.7237 66.0663Z" fill="#D1FF7D" stroke="black" stroke-width="4.66238" stroke-linecap="round"/>
<path d="M22.6206 27.0862C18.9303 27.8053 15.7165 36.0988 21.1009 41.468" stroke="black" stroke-width="2.33119" stroke-linecap="round"/>
<path d="M29.6045 30.4413C25.9142 31.1604 22.7004 39.4539 28.0847 44.8231" stroke="black" stroke-width="2.33119" stroke-linecap="round"/>
<path d="M67.8155 51.2943C64.1252 52.0134 60.9113 60.3069 66.2957 65.676" stroke="black" stroke-width="2.33119" stroke-linecap="round"/>
<path d="M63.4717 49.8568C59.7814 50.5759 56.5676 58.8694 61.9519 64.2385" stroke="black" stroke-width="2.33119" stroke-linecap="round"/>
</g>
<defs>
<filter id="filter0_d_19_1913" x="0.135742" y="58.1833" width="168.24" height="104.298" filterUnits="userSpaceOnUse" color-interpolation-filters="sRGB">
<feFlood flood-opacity="0" result="BackgroundImageFix"/>
<feColorMatrix in="SourceAlpha" type="matrix" values="0 0 0 0 0 0 0 0 0 0 0 0 0 0 0 0 0 0 127 0" result="hardAlpha"/>
<feOffset dy="5.83895"/>
<feComposite in2="hardAlpha" operator="out"/>
<feColorMatrix type="matrix" values="0 0 0 0 0 0 0 0 0 0 0 0 0 0 0 0 0 0 1 0"/>
<feBlend mode="normal" in2="BackgroundImageFix" result="effect1_dropShadow_19_1913"/>
<feBlend mode="normal" in="SourceGraphic" in2="effect1_dropShadow_19_1913" result="shape"/>
</filter>
<filter id="filter1_d_19_1913" x="-84.3311" y="6.06189" width="168.24" height="104.298" filterUnits="userSpaceOnUse" color-interpolation-filters="sRGB">
<feFlood flood-opacity="0" result="BackgroundImageFix"/>
<feColorMatrix in="SourceAlpha" type="matrix" values="0 0 0 0 0 0 0 0 0 0 0 0 0 0 0 0 0 0 127 0" result="hardAlpha"/>
<feOffset dy="5.83895"/>
<feComposite in2="hardAlpha" operator="out"/>
<feColorMatrix type="matrix" values="0 0 0 0 0 0 0 0 0 0 0 0 0 0 0 0 0 0 1 0"/>
<feBlend mode="normal" in2="BackgroundImageFix" result="effect1_dropShadow_19_1913"/>
<feBlend mode="normal" in="SourceGraphic" in2="effect1_dropShadow_19_1913" result="shape"/>
</filter>
<filter id="filter2_d_19_1913" x="4.03467" y="2.23773" width="118.413" height="74.5171" filterUnits="userSpaceOnUse" color-interpolation-filters="sRGB">
<feFlood flood-opacity="0" result="BackgroundImageFix"/>
<feColorMatrix in="SourceAlpha" type="matrix" values="0 0 0 0 0 0 0 0 0 0 0 0 0 0 0 0 0 0 127 0" result="hardAlpha"/>
<feOffset dy="5.83895"/>
<feComposite in2="hardAlpha" operator="out"/>
<feColorMatrix type="matrix" values="0 0 0 0 0 0 0 0 0 0 0 0 0 0 0 0 0 0 1 0"/>
<feBlend mode="normal" in2="BackgroundImageFix" result="effect1_dropShadow_19_1913"/>
<feBlend mode="normal" in="SourceGraphic" in2="effect1_dropShadow_19_1913" result="shape"/>
</filter>
</defs>
</svg>
