<svg width="689" height="730" viewBox="0 0 689 730" fill="none" xmlns="http://www.w3.org/2000/svg">
<g filter="url(#filter0_di_2003_7)">
<path d="M656.426 582.425L600.286 612.911C598.18 614.055 595.726 614.382 593.394 613.83L573.886 609.209L647.064 566.843C650.409 564.906 650.272 560.031 646.823 558.285L506.607 487.303C501.488 484.711 495.464 484.603 490.255 487.01L464.728 498.806C460.982 500.537 456.571 498.55 455.385 494.597C454.425 491.398 455.937 487.977 458.948 486.532L481.745 475.596C492.305 470.53 504.624 470.682 515.055 476.008L655.987 547.961C669.947 555.088 670.199 574.945 656.426 582.425Z" fill="white" fill-opacity="0.2" shape-rendering="crispEdges"/>
<path d="M656.426 582.425L600.286 612.911C598.18 614.055 595.726 614.382 593.394 613.83L573.886 609.209L647.064 566.843C650.409 564.906 650.272 560.031 646.823 558.285L506.607 487.303C501.488 484.711 495.464 484.603 490.255 487.01L464.728 498.806C460.982 500.537 456.571 498.55 455.385 494.597C454.425 491.398 455.937 487.977 458.948 486.532L481.745 475.596C492.305 470.53 504.624 470.682 515.055 476.008L655.987 547.961C669.947 555.088 670.199 574.945 656.426 582.425Z" stroke="black" stroke-width="1.58259" shape-rendering="crispEdges"/>
</g>
<g filter="url(#filter1_d_2003_7)">
<path d="M563.681 598.814L558.624 601.708L600.488 622.67L607.359 619.858C610.261 618.67 610.398 614.611 607.582 613.23L577.305 598.38C572.973 596.256 567.869 596.418 563.681 598.814Z" fill="#4D21FF" stroke="black" stroke-width="2.42339" stroke-linecap="round"/>
<path d="M560.22 621.544L560.085 621.475C550.05 616.334 538.171 616.26 528.073 621.276L527.895 621.364L527.699 621.391L481.352 627.79C476.702 635.124 474.916 640.743 474.507 646.204C473.833 655.215 482.871 662.097 492.256 660.883L492.411 662.085L492.256 660.883C493.05 660.781 493.806 660.678 494.524 660.576C501.069 659.648 507.365 657.484 513.498 654.788L516.709 653.376C517.71 652.895 518.792 653.27 519.409 653.953C521.071 655.793 524.734 657.244 529.23 657.244C531.647 657.244 533.862 656.822 535.653 656.122C537.461 655.416 538.749 654.464 539.434 653.471C540.011 652.636 541.248 652.035 542.426 652.635L554.732 658.905C554.732 658.905 554.732 658.906 554.732 658.906C555.775 659.437 555.555 660.893 554.534 661.208C552.807 661.742 551.431 662.503 550.509 663.359C549.59 664.212 549.18 665.095 549.18 665.933C549.18 667.098 549.943 668.234 550.942 669.186C551.419 669.64 551.901 670.005 552.265 670.257C552.446 670.382 552.595 670.477 552.697 670.54C552.747 670.571 552.785 670.593 552.81 670.608L552.835 670.622L552.837 670.624L552.838 670.624L552.838 670.624L552.839 670.624L552.839 670.625L554.506 671.559L552.946 672.668L547.284 676.693C547.12 679.517 548.043 683.477 549.723 688.083C551.279 692.346 553.779 695.258 556.811 697.067C559.856 698.884 563.516 699.636 567.445 699.434C575.323 699.03 584.109 694.793 590.555 688.061L609.655 666.948L609.734 666.86L560.22 621.544ZM560.22 621.544L560.368 621.578L618.983 634.94C621.527 645.496 619.271 653.404 616.383 658.696C614.901 661.411 613.244 663.45 611.963 664.804C611.323 665.481 610.779 665.986 610.4 666.317C610.21 666.483 610.062 666.605 609.964 666.684C609.939 666.704 609.917 666.721 609.899 666.736C609.881 666.749 609.867 666.761 609.856 666.769L609.832 666.787L609.83 666.789L609.829 666.79L609.828 666.79L560.22 621.544Z" fill="#9BDE20" stroke="black" stroke-width="2.42339"/>
<path d="M575.387 678.876L575.387 697.536" stroke="black" stroke-width="2.42339"/>
<path d="M549.235 665.691L549.458 646.96L566.543 648.475L554.789 669.68L550.712 667.951C549.807 667.568 549.223 666.675 549.235 665.691Z" fill="#9BDE20" stroke="black" stroke-width="2.42339"/>
<mask id="path-6-inside-1_2003_7" fill="white">
<path fill-rule="evenodd" clip-rule="evenodd" d="M618.868 638.327C619.04 638.299 619.218 638.217 619.345 638.098C628.458 629.613 577.604 606.658 554.784 596.967C547.879 594.035 540.221 593.42 533.075 595.703C517.8 600.581 490.818 611.245 479.12 628.488C465.671 648.313 478.915 658.258 491.348 654.19C495.807 652.732 499.435 649.673 503.071 646.607L503.071 646.607C504.834 645.121 506.599 643.633 508.461 642.326C511.876 639.928 515.103 637.787 517.978 635.947C518.367 635.698 518.874 635.764 519.227 636.062C521.377 637.873 525.056 639.067 529.233 639.067C534.337 639.067 538.697 637.284 540.433 634.771C540.756 634.304 541.372 634.069 541.878 634.327L550.083 638.507C550.895 638.921 551.624 639.421 552.272 639.992C552.779 640.438 552.58 641.233 551.977 641.535C549.519 642.765 547.972 644.553 547.972 646.543C547.972 649.197 550.722 651.491 554.715 652.582C555.246 652.727 555.585 653.265 555.412 653.788C554.928 655.255 554.205 656.654 553.247 657.904C549.864 662.314 546.87 667.578 546.108 673.013C544.139 687.055 563.575 701.959 577.571 681.421C580.038 677.799 582.355 674.204 584.599 670.723L584.599 670.723C595.019 654.555 603.859 640.84 618.868 638.327Z"/>
</mask>
<path fill-rule="evenodd" clip-rule="evenodd" d="M618.868 638.327C619.04 638.299 619.218 638.217 619.345 638.098C628.458 629.613 577.604 606.658 554.784 596.967C547.879 594.035 540.221 593.42 533.075 595.703C517.8 600.581 490.818 611.245 479.12 628.488C465.671 648.313 478.915 658.258 491.348 654.19C495.807 652.732 499.435 649.673 503.071 646.607L503.071 646.607C504.834 645.121 506.599 643.633 508.461 642.326C511.876 639.928 515.103 637.787 517.978 635.947C518.367 635.698 518.874 635.764 519.227 636.062C521.377 637.873 525.056 639.067 529.233 639.067C534.337 639.067 538.697 637.284 540.433 634.771C540.756 634.304 541.372 634.069 541.878 634.327L550.083 638.507C550.895 638.921 551.624 639.421 552.272 639.992C552.779 640.438 552.58 641.233 551.977 641.535C549.519 642.765 547.972 644.553 547.972 646.543C547.972 649.197 550.722 651.491 554.715 652.582C555.246 652.727 555.585 653.265 555.412 653.788C554.928 655.255 554.205 656.654 553.247 657.904C549.864 662.314 546.87 667.578 546.108 673.013C544.139 687.055 563.575 701.959 577.571 681.421C580.038 677.799 582.355 674.204 584.599 670.723L584.599 670.723C595.019 654.555 603.859 640.84 618.868 638.327Z" fill="#CCFF6F"/>
<path d="M554.784 596.967L553.837 599.198L554.784 596.967ZM533.075 595.703L532.337 593.394V593.394L533.075 595.703ZM479.12 628.488L481.126 629.849L479.12 628.488ZM491.348 654.19L492.101 656.494H492.101L491.348 654.19ZM503.071 646.607L501.557 644.715L501.533 644.735L501.509 644.755L503.071 646.607ZM503.071 646.607L504.585 648.5L504.61 648.48L504.633 648.46L503.071 646.607ZM508.461 642.326L509.854 644.309L509.854 644.309L508.461 642.326ZM550.083 638.507L551.184 636.348H551.184L550.083 638.507ZM553.247 657.904L555.17 659.379L553.247 657.904ZM546.108 673.013L543.708 672.677V672.677L546.108 673.013ZM577.571 681.421L575.568 680.056V680.056L577.571 681.421ZM584.599 670.723L582.583 669.378L582.572 669.394L582.562 669.41L584.599 670.723ZM584.599 670.723L586.616 672.067L586.626 672.051L586.636 672.035L584.599 670.723ZM554.715 652.582L554.076 654.92L554.715 652.582ZM555.412 653.788L557.713 654.548L555.412 653.788ZM552.272 639.992L553.874 638.174L552.272 639.992ZM551.977 641.535L553.061 643.703L551.977 641.535ZM540.433 634.771L542.427 636.149L540.433 634.771ZM541.878 634.327L540.777 636.486L541.878 634.327ZM517.978 635.947L519.284 637.988L517.978 635.947ZM519.227 636.062L520.788 634.208L519.227 636.062ZM619.345 638.098L620.996 639.872L619.345 638.098ZM618.868 638.327L618.468 635.937L618.868 638.327ZM553.837 599.198C565.233 604.038 583.553 612.158 597.863 620.104C605.05 624.095 611.057 627.951 614.68 631.247C616.523 632.925 617.507 634.245 617.862 635.165C618.024 635.584 618.009 635.802 617.992 635.886C617.98 635.949 617.942 636.093 617.693 636.325L620.996 639.872C621.886 639.043 622.519 638.014 622.752 636.803C622.981 635.614 622.785 634.459 622.384 633.42C621.613 631.423 619.941 629.482 617.942 627.662C613.879 623.966 607.455 619.886 600.216 615.866C585.671 607.79 567.155 599.588 555.731 594.737L553.837 599.198ZM533.812 598.011C540.349 595.924 547.408 596.468 553.837 599.198L555.731 594.737C548.349 591.602 540.093 590.917 532.337 593.394L533.812 598.011ZM481.126 629.849C486.652 621.702 495.922 614.952 505.903 609.594C515.842 604.258 526.253 600.426 533.812 598.011L532.337 593.394C524.622 595.859 513.905 599.797 503.61 605.324C493.357 610.828 483.286 618.031 477.115 627.128L481.126 629.849ZM490.594 651.887C485.061 653.697 479.891 652.236 477.5 648.89C475.186 645.651 474.641 639.407 481.126 629.849L477.115 627.128C470.15 637.394 469.503 646.035 473.556 651.708C477.533 657.273 485.202 658.751 492.101 656.494L490.594 651.887ZM501.509 644.755C497.804 647.879 494.528 650.6 490.594 651.887L492.101 656.494C497.085 654.864 501.067 651.467 504.633 648.46L501.509 644.755ZM501.557 644.715L501.557 644.715L504.585 648.5L504.585 648.5L501.557 644.715ZM507.068 640.343C505.104 641.722 503.258 643.281 501.509 644.755L504.633 648.46C506.411 646.962 508.094 645.545 509.854 644.309L507.068 640.343ZM516.672 633.906C513.771 635.762 510.515 637.923 507.068 640.343L509.854 644.309C513.237 641.934 516.434 639.812 519.284 637.988L516.672 633.906ZM529.233 636.643C525.434 636.643 522.374 635.544 520.788 634.208L517.666 637.915C520.381 640.202 524.677 641.49 529.233 641.49V636.643ZM538.439 633.394C537.937 634.121 536.885 634.951 535.214 635.604C533.578 636.243 531.514 636.643 529.233 636.643V641.49C532.056 641.49 534.724 640.999 536.977 640.119C539.197 639.252 541.193 637.934 542.427 636.149L538.439 633.394ZM551.184 636.348L542.978 632.167L540.777 636.486L548.983 640.667L551.184 636.348ZM553.874 638.174C553.075 637.47 552.177 636.855 551.184 636.348L548.983 640.667C549.612 640.987 550.173 641.373 550.67 641.81L553.874 638.174ZM550.396 646.543C550.396 645.916 550.931 644.769 553.061 643.703L550.892 639.368C548.107 640.762 545.549 643.191 545.549 646.543H550.396ZM555.354 650.244C553.612 649.768 552.286 649.065 551.445 648.327C550.608 647.592 550.396 646.97 550.396 646.543H545.549C545.549 648.77 546.712 650.621 548.248 651.97C549.78 653.315 551.826 654.305 554.076 654.92L555.354 650.244ZM555.17 659.379C556.302 657.903 557.148 656.258 557.713 654.548L553.111 653.028C552.707 654.251 552.109 655.406 551.324 656.429L555.17 659.379ZM548.508 673.35C549.186 668.516 551.894 663.65 555.17 659.379L551.324 656.429C547.834 660.979 544.555 666.639 543.708 672.677L548.508 673.35ZM575.568 680.056C572.29 684.867 568.844 687.387 565.697 688.451C562.568 689.509 559.526 689.202 556.862 687.982C551.388 685.474 547.685 679.219 548.508 673.35L543.708 672.677C542.562 680.85 547.594 689.068 554.844 692.388C558.542 694.082 562.861 694.527 567.25 693.042C571.622 691.563 575.853 688.245 579.573 682.786L575.568 680.056ZM582.562 669.41C580.316 672.895 578.015 676.465 575.568 680.056L579.573 682.786C582.061 679.134 584.395 675.513 586.636 672.035L582.562 669.41ZM582.583 669.378L582.583 669.378L586.616 672.067L586.616 672.067L582.583 669.378ZM618.468 635.937C610.268 637.31 603.856 641.745 598.242 647.749C592.675 653.704 587.74 661.377 582.562 669.41L586.636 672.035C591.879 663.901 596.573 656.632 601.783 651.059C606.947 645.536 612.459 641.857 619.269 640.718L618.468 635.937ZM554.076 654.92C553.471 654.754 552.785 654.015 553.111 653.028L557.713 654.548C558.385 652.515 557.021 650.7 555.354 650.244L554.076 654.92ZM550.67 641.81C550.199 641.395 550.071 640.787 550.17 640.318C550.26 639.89 550.531 639.549 550.892 639.368L553.061 643.703C554.027 643.22 554.699 642.33 554.912 641.318C555.134 640.264 554.852 639.035 553.874 638.174L550.67 641.81ZM542.427 636.149C542.295 636.339 542.102 636.494 541.847 636.578C541.575 636.668 541.176 636.689 540.777 636.486L542.978 632.167C541.128 631.225 539.271 632.19 538.439 633.394L542.427 636.149ZM519.284 637.988C518.656 638.39 518.006 638.202 517.666 637.915L520.788 634.208C519.741 633.327 518.078 633.006 516.672 633.906L519.284 637.988ZM617.693 636.325C617.833 636.195 617.969 636.112 618.081 636.058C618.195 636.004 618.323 635.962 618.468 635.937L619.269 640.718C619.863 640.618 620.489 640.344 620.996 639.872L617.693 636.325Z" fill="black" mask="url(#path-6-inside-1_2003_7)"/>
<circle cx="562.744" cy="677.681" r="6.66433" fill="#FFFBEE"/>
<path d="M517.832 633.984V653.383" stroke="black" stroke-width="2.42339"/>
<path d="M540.612 633.995V653.382" stroke="black" stroke-width="2.42339"/>
<path d="M483.135 632.365C484.852 628.851 491.375 621.205 499.372 616.794" stroke="#FFFBEE" stroke-width="2.42339" stroke-linecap="round"/>
<g filter="url(#filter2_i_2003_7)">
<path d="M567.862 631.052L542.597 618.968C541.791 618.582 541.766 617.443 542.554 617.022L555.793 609.95C556.725 609.452 557.841 609.435 558.788 609.905L583.871 622.35C584.673 622.747 584.68 623.888 583.884 624.297L570.776 631.013C569.864 631.48 568.786 631.495 567.862 631.052Z" fill="#9BDE20"/>
</g>
<path d="M567.862 631.052L542.597 618.968C541.791 618.582 541.766 617.443 542.554 617.022L555.793 609.95C556.725 609.452 557.841 609.435 558.788 609.905L583.871 622.35C584.673 622.747 584.68 623.888 583.884 624.297L570.776 631.013C569.864 631.48 568.786 631.495 567.862 631.052Z" stroke="black" stroke-width="1.63547"/>
<mask id="mask0_2003_7" style="mask-type:alpha" maskUnits="userSpaceOnUse" x="543" y="612" width="39" height="20">
<path d="M570.921 630.547L545.475 618.551L555.108 613.583L579.887 625.821L570.921 630.547Z" fill="#9BDE20" stroke="black" stroke-width="1.63547"/>
</mask>
<g mask="url(#mask0_2003_7)">
<path d="M532.814 622.369L584.19 619.521L592.975 623.823L535.964 629.033L532.814 622.369Z" fill="#FFFBEE"/>
<path d="M538.629 615.542L574.121 613.583L580.19 616.542L540.805 620.126L538.629 615.542Z" fill="#FFFBEE"/>
</g>
<g filter="url(#filter3_d_2003_7)">
<path d="M578.506 642.116L582.975 644.345C583.685 644.679 584.511 644.659 585.205 644.292L590.527 641.471L594.701 643.296C595.39 643.597 596.178 643.571 596.845 643.226L600.582 641.293C601.163 640.993 601.065 636.677 601.049 636.11C601.048 636.072 601.025 636.039 600.99 636.024L594.701 633.286C593.999 632.972 594.247 632.711 593.569 633.075L589.694 635.151L585.249 633.245C584.556 632.948 583.766 632.981 583.101 633.336L579.331 631.859C579.266 631.834 579.196 631.88 579.194 631.95C579.176 632.921 579.029 636.446 579.628 636.708L583.571 638.431L578.505 637.331C577.905 637.653 577.89 641.826 578.506 642.116Z" fill="#4D21FF" stroke="black" stroke-width="1.77573"/>
<path fill-rule="evenodd" clip-rule="evenodd" d="M578.906 638.484L582.974 640.399C583.684 640.734 584.51 640.714 585.204 640.347L590.525 637.527L594.701 639.352C595.39 639.653 596.177 639.627 596.845 639.282L600.582 637.349C601.203 637.028 601.171 636.128 600.528 635.853L596.745 634.231L600.089 632.459C600.698 632.136 600.669 631.254 600.04 630.972L595.757 629.052C595.055 628.737 594.246 628.766 593.568 629.129L589.692 631.206L585.249 629.301C584.556 629.004 583.766 629.037 583.101 629.392L579.569 631.275C578.959 631.6 578.993 632.487 579.627 632.764L583.569 634.487L578.868 637.005C578.268 637.327 578.29 638.195 578.906 638.484Z" fill="#7B5CF7"/>
<path d="M582.974 640.399L582.596 641.203L582.974 640.399ZM578.906 638.484L579.284 637.681L578.906 638.484ZM585.204 640.347L585.62 641.131H585.62L585.204 640.347ZM590.525 637.527L590.881 636.713L590.488 636.542L590.109 636.742L590.525 637.527ZM594.701 639.352L594.345 640.165H594.345L594.701 639.352ZM596.845 639.282L596.437 638.493V638.493L596.845 639.282ZM600.582 637.349L600.174 636.561L600.582 637.349ZM600.528 635.853L600.878 635.037L600.528 635.853ZM596.745 634.231L596.329 633.446L594.689 634.315L596.395 635.047L596.745 634.231ZM600.089 632.459L600.504 633.243L600.504 633.243L600.089 632.459ZM600.04 630.972L599.677 631.782L599.677 631.782L600.04 630.972ZM595.757 629.052L596.12 628.242V628.242L595.757 629.052ZM593.568 629.129L593.149 628.347V628.347L593.568 629.129ZM589.692 631.206L589.342 632.022L589.735 632.19L590.111 631.989L589.692 631.206ZM585.249 629.301L584.899 630.117L585.249 629.301ZM583.101 629.392L582.683 628.608V628.608L583.101 629.392ZM579.569 631.275L579.152 630.491H579.152L579.569 631.275ZM579.627 632.764L579.983 631.95H579.983L579.627 632.764ZM583.569 634.487L583.988 635.269L585.6 634.405L583.924 633.673L583.569 634.487ZM578.868 637.005L579.287 637.788H579.287L578.868 637.005ZM583.352 639.596L579.284 637.681L578.528 639.288L582.596 641.203L583.352 639.596ZM584.788 639.562C584.342 639.799 583.809 639.811 583.352 639.596L582.596 641.203C583.559 641.656 584.679 641.629 585.62 641.131L584.788 639.562ZM590.109 636.742L584.788 639.562L585.62 641.131L590.941 638.311L590.109 636.742ZM595.056 638.538L590.881 636.713L590.169 638.34L594.345 640.165L595.056 638.538ZM596.437 638.493C596.007 638.716 595.5 638.732 595.056 638.538L594.345 640.165C595.279 640.574 596.348 640.539 597.253 640.07L596.437 638.493ZM600.174 636.561L596.437 638.493L597.253 640.07L600.99 638.138L600.174 636.561ZM600.178 636.669C600.178 636.669 600.174 636.667 600.168 636.662C600.162 636.657 600.156 636.65 600.152 636.644C600.143 636.631 600.142 636.621 600.142 636.616C600.142 636.611 600.142 636.601 600.15 636.588C600.154 636.581 600.159 636.574 600.165 636.568C600.17 636.563 600.175 636.56 600.174 636.561L600.99 638.138C602.277 637.472 602.21 635.608 600.878 635.037L600.178 636.669ZM596.395 635.047L600.178 636.669L600.878 635.037L597.095 633.415L596.395 635.047ZM599.673 631.674L596.329 633.446L597.161 635.015L600.504 633.243L599.673 631.674ZM599.677 631.782C599.677 631.782 599.673 631.78 599.667 631.775C599.661 631.769 599.655 631.763 599.651 631.757C599.643 631.744 599.641 631.734 599.641 631.729C599.641 631.724 599.642 631.714 599.649 631.701C599.653 631.694 599.658 631.688 599.663 631.682C599.669 631.676 599.673 631.674 599.673 631.674L600.504 633.243C601.767 632.574 601.707 630.746 600.403 630.161L599.677 631.782ZM595.394 629.862L599.677 631.782L600.403 630.161L596.12 628.242L595.394 629.862ZM593.987 629.912C594.423 629.678 594.943 629.66 595.394 629.862L596.12 628.242C595.167 627.815 594.069 627.853 593.149 628.347L593.987 629.912ZM590.111 631.989L593.987 629.912L593.149 628.347L589.273 630.423L590.111 631.989ZM584.899 630.117L589.342 632.022L590.042 630.39L585.599 628.485L584.899 630.117ZM583.519 630.175C583.946 629.947 584.454 629.926 584.899 630.117L585.599 628.485C584.659 628.081 583.586 628.127 582.683 628.608L583.519 630.175ZM579.987 632.058L583.519 630.175L582.683 628.608L579.152 630.491L579.987 632.058ZM579.983 631.95C579.983 631.95 579.987 631.952 579.993 631.957C579.999 631.963 580.005 631.969 580.009 631.975C580.017 631.988 580.019 631.998 580.019 632.003C580.019 632.008 580.018 632.018 580.011 632.031C580.007 632.038 580.002 632.045 579.997 632.05C579.991 632.056 579.987 632.058 579.987 632.058L579.152 630.491C577.886 631.166 577.958 633.003 579.272 633.578L579.983 631.95ZM583.924 633.673L579.983 631.95L579.272 633.578L583.213 635.3L583.924 633.673ZM579.287 637.788L583.988 635.269L583.149 633.704L578.448 636.223L579.287 637.788ZM579.284 637.681C579.284 637.681 579.288 637.683 579.294 637.688C579.3 637.694 579.305 637.7 579.309 637.706C579.317 637.719 579.318 637.728 579.318 637.734C579.319 637.739 579.318 637.749 579.31 637.762C579.307 637.768 579.302 637.775 579.296 637.78C579.291 637.786 579.287 637.788 579.287 637.788L578.448 636.223C577.205 636.889 577.252 638.687 578.528 639.288L579.284 637.681Z" fill="black"/>
</g>
<g filter="url(#filter4_i_2003_7)">
<ellipse cx="559.089" cy="646.355" rx="6.96725" ry="3.87743" fill="#4D21FF"/>
</g>
<path d="M564.845 646.355C564.845 646.787 564.516 647.432 563.426 648.038C562.377 648.622 560.846 649.021 559.089 649.021C557.332 649.021 555.801 648.622 554.752 648.038C553.662 647.432 553.333 646.787 553.333 646.355C553.333 645.923 553.662 645.279 554.752 644.672C555.801 644.089 557.332 643.69 559.089 643.69C560.846 643.69 562.377 644.089 563.426 644.672C564.516 645.279 564.845 645.923 564.845 646.355Z" stroke="black" stroke-width="2.42339"/>
<g filter="url(#filter5_i_2003_7)">
<ellipse cx="529.281" cy="631.935" rx="6.96725" ry="3.87743" fill="#4D21FF"/>
</g>
<path d="M535.037 631.935C535.037 632.367 534.708 633.012 533.619 633.618C532.57 634.202 531.039 634.601 529.282 634.601C527.524 634.601 525.993 634.202 524.944 633.618C523.855 633.012 523.526 632.367 523.526 631.935C523.526 631.503 523.855 630.859 524.944 630.252C525.993 629.669 527.524 629.27 529.282 629.27C531.039 629.27 532.57 629.669 533.619 630.252C534.708 630.859 535.037 631.503 535.037 631.935Z" stroke="black" stroke-width="2.42339"/>
<g filter="url(#filter6_d_2003_7)">
<path d="M533.658 631.61C533.658 631.956 533.397 632.457 532.56 632.924C531.753 633.375 530.576 633.682 529.227 633.682C527.878 633.682 526.702 633.375 525.895 632.924C525.058 632.457 524.797 631.956 524.797 631.61C524.797 630.811 524.859 628.587 525.538 626.559C526.223 624.517 527.409 622.977 529.515 622.872C530.604 622.818 531.344 623.18 531.895 623.755C532.477 624.362 532.892 625.256 533.171 626.302C533.68 628.211 533.666 630.322 533.659 631.339C533.658 631.44 533.658 631.531 533.658 631.61Z" fill="#4D21FF" stroke="black" stroke-width="1.81754"/>
</g>
<g filter="url(#filter7_d_2003_7)">
<path d="M563.57 646.203C563.57 646.549 563.309 647.05 562.472 647.517C561.665 647.968 560.488 648.275 559.139 648.275C557.79 648.275 556.614 647.968 555.807 647.517C554.97 647.05 554.709 646.549 554.709 646.203C554.709 645.404 554.771 643.18 555.45 641.152C556.135 639.11 557.321 637.57 559.427 637.465C560.516 637.411 561.256 637.773 561.807 638.348C562.389 638.955 562.804 639.849 563.083 640.895C563.592 642.804 563.578 644.915 563.571 645.932C563.57 646.033 563.57 646.124 563.57 646.203Z" fill="#4D21FF" stroke="black" stroke-width="1.81754"/>
<path d="M566.6 638.185C566.6 638.942 566.041 639.815 564.721 640.552C563.432 641.272 561.589 641.746 559.504 641.746C557.419 641.746 555.576 641.272 554.287 640.552C552.967 639.815 552.408 638.942 552.408 638.185C552.408 636.899 552.442 635.969 553.158 635.219C553.903 634.436 555.592 633.655 559.549 633.457C563.532 633.258 565.159 634.061 565.861 634.881C566.591 635.732 566.6 636.872 566.6 638.185Z" fill="#4D21FF" stroke="black" stroke-width="1.81754"/>
<g filter="url(#filter8_i_2003_7)">
<ellipse cx="559.504" cy="635.552" rx="8.00492" ry="4.46942" fill="#7B5CF7"/>
</g>
<path d="M566.6 635.552C566.6 636.309 566.041 637.182 564.721 637.919C563.432 638.639 561.589 639.113 559.504 639.113C557.419 639.113 555.576 638.639 554.287 637.919C552.967 637.182 552.408 636.309 552.408 635.552C552.408 634.795 552.967 633.922 554.287 633.185C555.576 632.465 557.419 631.991 559.504 631.991C561.589 631.991 563.432 632.465 564.721 633.185C566.041 633.922 566.6 634.795 566.6 635.552Z" stroke="black" stroke-width="1.81754"/>
<ellipse cx="557.618" cy="635.527" rx="2.47715" ry="1.38429" fill="#FFFBEE"/>
</g>
<g filter="url(#filter9_d_2003_7)">
<path d="M544.709 608.679C544.709 609.718 543.942 610.89 542.194 611.866C540.483 612.821 538.044 613.447 535.289 613.447C532.534 613.447 530.094 612.821 528.383 611.866C526.635 610.89 525.869 609.718 525.869 608.679C525.869 607.019 525.893 605.025 527 603.354C528.054 601.764 530.287 600.206 535.344 599.953C540.422 599.699 542.593 601.257 543.613 602.923C544.709 604.714 544.709 606.953 544.709 608.632V608.679Z" fill="#4D21FF" stroke="black" stroke-width="2.22751"/>
<g filter="url(#filter10_i_2003_7)">
<ellipse cx="535.289" cy="602.79" rx="10.534" ry="5.88147" fill="#7B5CF7"/>
</g>
<path d="M544.709 602.79C544.709 603.829 543.942 605 542.194 605.976C540.483 606.932 538.044 607.557 535.289 607.557C532.534 607.557 530.094 606.932 528.383 605.976C526.635 605 525.869 603.829 525.869 602.79C525.869 601.751 526.635 600.579 528.383 599.603C530.094 598.648 532.534 598.022 535.289 598.022C538.044 598.022 540.483 598.648 542.194 599.603C543.942 600.579 544.709 601.751 544.709 602.79Z" stroke="black" stroke-width="2.22751"/>
<ellipse cx="532.806" cy="602.757" rx="3.25977" ry="1.82164" fill="#FFFBEE"/>
</g>
<g filter="url(#filter11_d_2003_7)">
<path d="M536.564 624.134C536.564 624.891 536.005 625.765 534.685 626.501C533.396 627.221 531.553 627.695 529.468 627.695C527.383 627.695 525.54 627.221 524.251 626.501C522.932 625.765 522.372 624.891 522.372 624.134C522.372 622.849 522.407 621.919 523.122 621.168C523.867 620.386 525.556 619.605 529.514 619.407C533.496 619.208 535.123 620.011 535.825 620.83C536.555 621.682 536.564 622.822 536.564 624.134Z" fill="#4D21FF" stroke="black" stroke-width="1.81754"/>
<g filter="url(#filter12_i_2003_7)">
<ellipse cx="529.468" cy="621.502" rx="8.00492" ry="4.46942" fill="#7B5CF7"/>
</g>
<path d="M536.564 621.502C536.564 622.259 536.005 623.132 534.685 623.869C533.396 624.589 531.553 625.063 529.468 625.063C527.383 625.063 525.54 624.589 524.251 623.869C522.932 623.132 522.372 622.259 522.372 621.502C522.372 620.745 522.932 619.872 524.251 619.135C525.54 618.415 527.383 617.941 529.468 617.941C531.553 617.941 533.396 618.415 534.685 619.135C536.005 619.872 536.564 620.745 536.564 621.502Z" stroke="black" stroke-width="1.81754"/>
<ellipse cx="527.582" cy="621.477" rx="2.47715" ry="1.38429" fill="#FFFBEE"/>
</g>
</g>
<g filter="url(#filter13_d_2003_7)">
<path d="M491.328 368.928L374.067 312.828C369.653 310.716 364.578 314.397 363.3 319.121C360.902 327.976 354.056 332.077 347.721 333.958C341.379 335.841 335.818 341.502 336.495 348.083L349.93 478.632C350.219 481.439 351.609 484.016 353.797 485.799L441.256 557.084C444.99 560.128 450.302 560.286 454.211 557.471L475.477 542.155C478.327 540.103 479.984 536.808 479.956 533.297C479.783 510.998 480.299 427.391 496.834 383.928C498.998 378.239 496.819 371.556 491.328 368.928Z" fill="#7B5CF7" stroke="black" stroke-width="3.42219" stroke-linecap="round"/>
<path d="M458.203 368.598L366.542 327.358C363.694 326.077 360.428 326.11 357.607 327.448L336.042 337.674C331.609 339.776 329.185 344.634 330.171 349.44L356.783 479.156C357.25 481.431 358.448 483.491 360.194 485.023L434.91 550.558C438.295 553.527 443.181 554.047 447.115 551.857L468.295 540.068C471.555 538.253 473.628 534.865 473.76 531.136L478.362 401.016C478.854 387.118 470.885 374.304 458.203 368.598Z" fill="#2606AA" stroke="black" stroke-width="3.42219" stroke-linecap="round"/>
<path d="M325.079 351.34V492.738C325.079 496.704 327.282 500.341 330.796 502.178L430.086 554.091C437.179 557.799 445.675 552.654 445.675 544.651V402.245C445.675 398.249 443.438 394.589 439.882 392.765L340.591 341.861C333.503 338.226 325.079 343.374 325.079 351.34Z" fill="#7B5CF7" stroke="black" stroke-width="3.42219" stroke-linecap="round"/>
<g filter="url(#filter14_d_2003_7)">
<path d="M319.583 337.196C334.152 389.353 324.377 464.114 320.588 488.26C319.857 492.923 322.16 497.571 326.364 499.717L439.58 557.492C445.794 560.663 453.254 557.144 454.485 550.277C460.137 518.743 471.554 439.286 453.346 392.089C452.433 389.723 450.612 387.863 448.333 386.751L329.225 328.658C324.001 326.11 318.02 331.597 319.583 337.196Z" fill="#7B5CF7"/>
<path d="M319.583 337.196C334.152 389.353 324.377 464.114 320.588 488.26C319.857 492.923 322.16 497.571 326.364 499.717L439.58 557.492C445.794 560.663 453.254 557.144 454.485 550.277C460.137 518.743 471.554 439.286 453.346 392.089C452.433 389.723 450.612 387.863 448.333 386.751L329.225 328.658C324.001 326.11 318.02 331.597 319.583 337.196Z" stroke="black" stroke-width="3.42219" stroke-linecap="round"/>
</g>
<path d="M339.43 354.928C340.728 354.928 342.406 355.902 343.805 357.733C345.179 359.531 346.173 362.023 346.173 364.772C346.173 367.521 345.179 370.013 343.805 371.811C342.406 373.641 340.728 374.616 339.43 374.616C338.28 374.616 337.378 373.826 336.733 372.022C336.091 370.227 335.815 367.677 335.815 364.772C335.815 361.866 336.091 359.317 336.733 357.522C337.378 355.717 338.28 354.928 339.43 354.928Z" fill="#4D21FF" stroke="black" stroke-width="1.5643"/>
<g filter="url(#filter15_d_2003_7)">
<path d="M338.864 510.161V495.773C338.864 493.199 341.598 491.546 343.877 492.743L405.477 525.082C406.603 525.673 407.308 526.84 407.308 528.112V532.234C407.308 542.587 396.258 549.193 387.138 544.291L346.072 522.218C341.633 519.832 338.864 515.2 338.864 510.161Z" fill="#2606AA"/>
<path d="M338.864 510.161V495.773C338.864 493.199 341.598 491.546 343.877 492.743L405.477 525.082C406.603 525.673 407.308 526.84 407.308 528.112V532.234C407.308 542.587 396.258 549.193 387.138 544.291L346.072 522.218C341.633 519.832 338.864 515.2 338.864 510.161Z" stroke="#101010" stroke-width="3.42219" stroke-linecap="round"/>
</g>
</g>
<g filter="url(#filter16_di_2003_7)">
<path d="M154.419 256.628L174.022 269.059L164.636 283.92L141.926 270.844C140.005 269.738 137.642 269.731 135.714 270.826L51.0301 318.927C46.724 321.373 46.8311 327.614 51.2185 329.911L230.61 423.821C248.729 433.306 248.44 459.34 230.115 468.421L110.502 527.694C105.818 530.015 105.877 536.715 110.6 538.954L219.387 590.522L200.615 600.69L99.9814 553.021C80.8577 543.963 80.9066 516.734 100.063 507.744L218.922 451.963C223.606 449.765 223.75 443.157 219.167 440.756L41.8012 347.85C24.0955 338.575 23.8682 313.311 41.4042 303.72L129.004 255.806C136.995 251.436 146.728 251.75 154.419 256.628Z" fill="#FFF3CD" fill-opacity="0.2" shape-rendering="crispEdges"/>
<path d="M154.419 256.628L174.022 269.059L164.636 283.92L141.926 270.844C140.005 269.738 137.642 269.731 135.714 270.826L51.0301 318.927C46.724 321.373 46.8311 327.614 51.2185 329.911L230.61 423.821C248.729 433.306 248.44 459.34 230.115 468.421L110.502 527.694C105.818 530.015 105.877 536.715 110.6 538.954L219.387 590.522L200.615 600.69L99.9814 553.021C80.8577 543.963 80.9066 516.734 100.063 507.744L218.922 451.963C223.606 449.765 223.75 443.157 219.167 440.756L41.8012 347.85C24.0955 338.575 23.8682 313.311 41.4042 303.72L129.004 255.806C136.995 251.436 146.728 251.75 154.419 256.628Z" stroke="black" stroke-width="1.801" shape-rendering="crispEdges"/>
</g>
<g filter="url(#filter17_d_2003_7)">
<g filter="url(#filter18_di_2003_7)">
<ellipse cx="602.678" cy="242.216" rx="70.301" ry="39.3503" fill="#4D21FF"/>
<path d="M672.432 242.216C672.432 252.795 664.765 262.485 652.121 269.563C639.495 276.63 622.016 281.018 602.678 281.018C583.341 281.018 565.861 276.63 553.236 269.563C540.592 262.485 532.925 252.795 532.925 242.216C532.925 231.637 540.592 221.946 553.236 214.869C565.861 207.802 583.341 203.413 602.678 203.413C622.016 203.413 639.495 207.802 652.121 214.869C664.765 221.946 672.432 231.637 672.432 242.216Z" stroke="black" stroke-width="1.0956"/>
</g>
<g filter="url(#filter19_ii_2003_7)">
<path d="M533.416 198.713H672.464V245.668C672.464 245.668 663.644 280.689 603.199 280.689C542.755 280.689 532.897 245.668 532.897 245.668L533.416 198.713Z" fill="#FFF7DD" fill-opacity="0.3"/>
</g>
<g filter="url(#filter20_di_2003_7)">
<ellipse cx="602.678" cy="195.52" rx="70.301" ry="39.3503" fill="#4D21FF"/>
<path d="M672.197 195.52C672.197 205.976 664.617 215.604 652.007 222.663C639.422 229.707 621.983 234.088 602.678 234.088C583.373 234.088 565.935 229.707 553.35 222.663C540.74 215.604 533.159 205.976 533.159 195.52C533.159 185.064 540.74 175.436 553.35 168.378C565.935 161.333 583.373 156.952 602.678 156.952C621.983 156.952 639.422 161.333 652.007 168.378C664.617 175.436 672.197 185.064 672.197 195.52Z" stroke="black" stroke-width="1.5643"/>
</g>
<ellipse cx="602.944" cy="195.387" rx="35.288" ry="19.5442" fill="#3719B4"/>
</g>
<g filter="url(#filter21_d_2003_7)">
<path d="M587.63 106.471C587.63 95.7306 595.227 82.7696 604.598 77.5217L621.565 68.0195V106.913L604.598 116.416C595.227 121.664 587.63 117.211 587.63 106.471Z" fill="#FF3A00" stroke="black" stroke-width="3.61804"/>
<path d="M587.63 146.269C587.63 135.528 595.227 122.567 604.598 117.319L621.565 107.817V146.711L604.598 156.213C595.227 161.461 587.63 157.009 587.63 146.269Z" fill="#AD54FF" stroke="black" stroke-width="3.61804"/>
<path d="M587.63 185.162C587.63 174.422 595.227 161.461 604.598 156.213L621.565 146.711V166.158C621.565 176.898 613.969 189.859 604.598 195.107C595.227 200.355 587.63 195.902 587.63 185.162Z" fill="#00D37C" stroke="black" stroke-width="3.61804"/>
<path d="M621.565 126.361C621.565 115.62 629.162 102.659 638.533 97.4114C647.904 92.1635 655.5 96.6159 655.5 107.356C655.5 118.096 647.904 131.057 638.533 136.305C629.162 141.553 621.565 137.101 621.565 126.361Z" fill="#00BFFF" stroke="black" stroke-width="3.61804"/>
<path d="M655.503 68.4636C655.503 57.7234 647.906 53.271 638.535 58.5189L621.568 68.0211V106.915L638.535 97.4128C647.906 92.1649 655.503 79.2039 655.503 68.4636Z" fill="#FF665A" stroke="black" stroke-width="3.61804"/>
</g>
<g filter="url(#filter22_di_2003_7)">
<ellipse cx="227.99" cy="286.898" rx="81.3434" ry="44.8349" fill="#4D21FF"/>
<path d="M308.828 286.898C308.828 299.009 299.915 310.083 285.264 318.158C270.632 326.223 250.384 331.227 227.99 331.227C205.597 331.227 185.348 326.223 170.716 318.158C156.066 310.083 147.153 299.009 147.153 286.898C147.153 274.786 156.066 263.713 170.716 255.638C185.348 247.573 205.597 242.569 227.99 242.569C250.384 242.569 270.632 247.573 285.264 255.638C299.915 263.713 308.828 274.786 308.828 286.898Z" stroke="black" stroke-width="1.01211"/>
</g>
<g filter="url(#filter23_di_2003_7)">
<ellipse cx="227.132" cy="276.795" rx="65.0064" ry="36.3867" fill="#4D21FF"/>
<path d="M291.631 276.795C291.631 286.578 284.542 295.538 272.851 302.083C261.176 308.618 245.012 312.675 227.132 312.675C209.251 312.675 193.087 308.618 181.412 302.083C169.721 295.538 162.632 286.578 162.632 276.795C162.632 267.013 169.721 258.052 181.412 251.508C193.087 244.973 209.251 240.915 227.132 240.915C245.012 240.915 261.176 244.973 272.851 251.508C284.542 258.052 291.631 267.013 291.631 276.795Z" stroke="black" stroke-width="1.01309"/>
</g>
<circle cx="194.832" cy="191.883" r="4.37431" transform="rotate(3.68671 194.832 191.883)" fill="#FFFBEE" fill-opacity="0.5" stroke="#FFFBEE" stroke-width="0.4793"/>
<circle cx="205.725" cy="176.893" r="2.32235" transform="rotate(3.68671 205.725 176.893)" fill="#FFFBEE" fill-opacity="0.5" stroke="#FFFBEE" stroke-width="0.4793"/>
<path d="M272.566 223.313L272.578 228.05C272.578 228.05 273.3 254.934 233.324 264.482C209.141 270.257 194.371 268.187 186.213 265.411C180.517 263.473 178.299 257.475 179.105 251.513C181.981 230.25 193.648 211.17 211.265 198.921L217.472 194.606C240.694 178.459 272.495 195.03 272.566 223.313Z" fill="#FF01C4" stroke="black" stroke-width="4.71485"/>
<path d="M183.055 262.28C190.211 240.026 215.067 195.341 257.237 194.632" stroke="black" stroke-width="3.15028"/>
<path d="M230.789 202.431L233.069 203.758C237.874 206.556 239.977 212.399 238.057 217.617V217.617V217.617C237.463 219.842 239.881 221.656 241.851 220.464L245.953 217.982C247.424 217.092 248.257 215.439 248.097 213.726L247.58 208.178C247.511 207.441 247.841 206.722 248.445 206.294V206.294C250.008 205.185 249.36 202.73 247.453 202.538L246.923 202.484C246.491 202.441 246.081 202.275 245.741 202.005L240.085 197.532" stroke="black" stroke-width="2.04776"/>
<path d="M249.42 195.879L252.623 199.077C255.534 201.982 257.193 205.911 257.248 210.023L257.262 211.097C257.281 212.582 256.991 214.056 256.408 215.422L255.684 217.12C254.515 219.864 255.025 223.035 256.996 225.274V225.274C259.744 228.396 259.535 233.131 256.524 235.999L249.893 242.314C249.232 242.943 248.5 243.492 247.71 243.949L238.409 249.329C235.957 250.747 235.669 254.174 237.849 255.982V255.982C238.322 256.375 238.878 256.655 239.474 256.802L240.725 257.109C245.078 258.18 249.596 256.121 251.645 252.134L252.246 250.965C252.741 250.001 253.372 249.112 254.12 248.327L261.283 240.805L265.987 236.44C268.777 233.85 268.857 229.462 266.163 226.772V226.772C264.43 225.042 263.777 222.506 264.459 220.154L265.736 215.751C266.676 212.51 266.453 209.042 265.105 205.948L264.677 204.965C263.609 202.514 261.992 200.341 259.95 198.615L255.713 195.032" stroke="black" stroke-width="2.04776"/>
<path d="M203.023 226.866L206.924 227.403C209.893 227.811 212.322 225.067 211.557 222.169V222.169L210.351 217.6" stroke="black" stroke-width="2.04776"/>
<path d="M221.493 207.328L230.995 209.636C234.517 210.491 234.851 215.368 231.48 216.697V216.697C230.442 217.106 229.643 217.96 229.304 219.023L227.668 224.156C227.092 225.962 227.636 227.937 229.055 229.193V229.193C230.253 230.254 231.902 230.646 233.45 230.237L239.893 228.536C240.541 228.365 241.154 228.082 241.704 227.7L243.838 226.218C246.077 224.663 249.18 225.806 249.876 228.441V228.441C250.234 229.798 249.841 231.243 248.844 232.232L239.171 241.829C235.752 245.221 230.823 246.606 226.137 245.491L217.873 243.524C213.483 242.479 209.25 245.755 209.159 250.266V250.266C209.07 254.663 212.97 258.074 217.315 257.403L220.923 256.846C222.84 256.549 224.802 256.809 226.576 257.594L229.482 258.88C231.758 259.887 233.453 261.874 234.088 264.28V264.28" stroke="black" stroke-width="2.04776"/>
<path d="M220.226 248.623L217.079 248.87C215.783 248.971 214.897 250.221 215.228 251.477C215.45 252.316 216.169 252.93 217.032 253.017L220.173 253.334C221.377 253.456 222.479 252.648 222.726 251.463C223.048 249.92 221.798 248.499 220.226 248.623Z" stroke="black" stroke-width="2.04776"/>
<path d="M213.559 214.311L217.079 217.287C219.473 219.311 220.723 222.379 220.426 225.499L220.241 227.45C219.791 232.183 215.271 235.434 210.641 234.356V234.356C207.116 233.536 203.486 235.23 201.852 238.46L201.751 238.659C200.851 240.438 200.635 242.485 201.144 244.412L202.958 251.283C204.15 255.798 206.5 259.923 209.775 263.251L213.684 267.224" stroke="black" stroke-width="2.04776"/>
<path d="M190.454 244.035L195.38 254.089C195.629 254.598 195.827 255.129 195.972 255.677L196.961 259.423C197.627 261.946 196.122 264.532 193.598 265.198V265.198" stroke="black" stroke-width="2.04776"/>
<path d="M231.147 200.706L228.446 199.555C225.112 198.134 221.245 198.963 218.785 201.625V201.625C216.977 203.581 214.363 204.586 211.71 204.345L210.917 204.273C208.24 204.03 205.575 204.854 203.502 206.567L199.382 209.972C198.567 210.645 198.218 211.731 198.488 212.753V212.753C199.013 214.743 201.476 215.444 202.971 214.031L204.579 212.51C205.748 211.404 207.634 211.625 208.516 212.972V212.972C209.133 213.914 209.069 215.147 208.358 216.021L204.98 220.165C203.644 221.804 201.471 222.507 199.429 221.961V221.961C197.693 221.498 195.841 221.932 194.492 223.119L192.97 224.46C190.365 226.753 189.279 230.321 190.165 233.676L190.328 234.293L190.93 236.572C191.195 237.575 191.203 238.628 190.956 239.636L189.789 244.38C189.383 246.03 187.505 246.826 186.037 245.972V245.972C185.454 245.632 185.029 245.075 184.857 244.422L183.316 238.588L182.311 234.781" stroke="black" stroke-width="2.04776"/>
<path d="M237.037 198.335L229.628 193.418C229.303 193.202 229.025 192.922 228.811 192.596V192.596C227.675 190.861 228.687 188.529 230.731 188.175L234.302 187.557C238.509 186.829 241.787 191.149 239.953 195.005L238.56 197.933" stroke="black" stroke-width="2.04776"/>
<g filter="url(#filter24_ii_2003_7)">
<path d="M163.088 121.278H291.665V279.986C291.665 279.986 283.509 312.37 227.617 312.37C171.724 312.37 162.609 279.986 162.609 279.986L163.088 121.278Z" fill="#CCFF6F" fill-opacity="0.2"/>
</g>
<circle cx="256.966" cy="240.942" r="2.32235" transform="rotate(3.68671 256.966 240.942)" fill="#FFFBEE" fill-opacity="0.5" stroke="#FFFBEE" stroke-width="0.4793"/>
<circle cx="256.966" cy="176.893" r="2.32235" transform="rotate(3.68671 256.966 176.893)" fill="#FFFBEE" fill-opacity="0.5" stroke="#FFFBEE" stroke-width="0.4793"/>
<circle cx="268.495" cy="253.752" r="2.32235" transform="rotate(3.68671 268.495 253.752)" fill="#FFFBEE" fill-opacity="0.5" stroke="#FFFBEE" stroke-width="0.4793"/>
<circle cx="242.875" cy="279.373" r="2.32235" transform="rotate(3.68671 242.875 279.373)" fill="#FFFBEE" fill-opacity="0.5" stroke="#FFFBEE" stroke-width="0.4793"/>
<circle cx="231.259" cy="288.419" r="3.60335" transform="rotate(3.68671 231.259 288.419)" fill="#FFFBEE" fill-opacity="0.5" stroke="#FFFBEE" stroke-width="0.4793"/>
<circle cx="180.019" cy="275.609" r="3.60335" transform="rotate(3.68671 180.019 275.609)" fill="#FFFBEE" fill-opacity="0.5" stroke="#FFFBEE" stroke-width="0.4793"/>
<circle cx="190.439" cy="272.888" r="1.04135" transform="rotate(3.68671 190.439 272.888)" fill="#FFFBEE" fill-opacity="0.5" stroke="#FFFBEE" stroke-width="0.4793"/>
<g filter="url(#filter25_di_2003_7)">
<ellipse cx="227.132" cy="118.327" rx="65.0064" ry="36.3867" fill="#4D21FF"/>
<path d="M291.435 118.327C291.435 128.006 284.418 136.914 272.755 143.443C261.114 149.958 244.985 154.01 227.132 154.01C209.278 154.01 193.149 149.958 181.508 143.443C169.845 136.914 162.828 128.006 162.828 118.327C162.828 108.647 169.845 99.7392 181.508 93.2108C193.149 86.695 209.278 82.6429 227.132 82.6429C244.985 82.6429 261.114 86.695 272.755 93.2108C284.418 99.7392 291.435 108.647 291.435 118.327Z" stroke="black" stroke-width="1.40589"/>
</g>
<ellipse cx="227.381" cy="118.203" rx="32.6304" ry="18.0722" fill="#3719B4"/>
<path d="M182.151 118.757C179.961 118.757 178.143 120.558 178.682 122.68C179.454 125.712 181.116 128.66 183.617 131.403C186.93 135.037 191.627 138.213 197.369 140.71C198.199 141.072 199.159 140.935 199.874 140.38C201.422 139.179 201.091 136.734 199.354 135.826C195.825 133.981 192.885 131.801 190.677 129.38C188.745 127.26 187.409 124.995 186.703 122.664C186.068 120.568 184.34 118.757 182.151 118.757Z" fill="#FFFBEE"/>
<g filter="url(#filter26_d_2003_7)">
<path d="M243.64 116.119C243.64 118.224 242.105 120.259 239.337 121.805C236.589 123.339 232.752 124.307 228.478 124.307C224.205 124.307 220.367 123.339 217.62 121.805C214.852 120.259 213.316 118.224 213.316 116.119C213.316 113.655 213.336 110.983 215.147 108.789C216.952 106.601 220.676 104.738 228.51 104.346C236.431 103.95 240.115 105.823 241.877 108.17C243.641 110.52 243.641 113.524 243.64 115.979C243.64 116.026 243.64 116.072 243.64 116.119Z" fill="#4D21FF" stroke="black" stroke-width="1.25284"/>
<g filter="url(#filter27_i_2003_7)">
<ellipse cx="228.478" cy="109.642" rx="15.7882" ry="8.81509" fill="#FF01C4"/>
</g>
<path d="M243.64 109.642C243.64 111.747 242.105 113.782 239.337 115.328C236.589 116.862 232.752 117.83 228.478 117.83C224.205 117.83 220.367 116.862 217.62 115.328C214.852 113.782 213.316 111.747 213.316 109.642C213.316 107.537 214.852 105.501 217.62 103.955C220.367 102.421 224.205 101.453 228.478 101.453C232.752 101.453 236.589 102.421 239.337 103.955C242.105 105.501 243.64 107.537 243.64 109.642Z" stroke="black" stroke-width="1.25284"/>
</g>
<g filter="url(#filter28_di_2003_7)">
<path d="M238.94 72.6463V97.9523C238.94 103.468 234.469 107.94 228.953 107.94C223.437 107.94 218.965 103.468 218.965 97.9523V79.6388C218.965 51.2094 238.284 26.4159 265.851 19.4667C305.046 9.58627 343.074 39.2177 343.074 79.6389V235.02C343.074 261.62 371.015 278.965 394.853 267.163C420.274 254.578 450.151 254.763 475.414 267.663L491.706 275.982C502.358 281.422 515.038 281.114 525.414 275.164L562.34 253.99C565.723 252.05 569.974 252.533 572.837 255.182C577.397 259.403 576.353 266.877 570.811 269.686L527.69 291.543C515.782 297.579 501.732 297.677 489.74 291.809L468.583 281.455C447.493 271.135 422.883 270.835 401.548 280.637L399.814 281.434C366.963 296.528 329.435 272.887 328.863 236.739L326.428 82.7158C325.907 49.7197 292.251 27.5347 261.538 39.6089C247.977 44.9404 238.94 58.0747 238.94 72.6463Z" fill="#D1FF7D" fill-opacity="0.8" shape-rendering="crispEdges"/>
<path d="M238.94 72.6463V97.9523C238.94 103.468 234.469 107.94 228.953 107.94C223.437 107.94 218.965 103.468 218.965 97.9523V79.6388C218.965 51.2094 238.284 26.4159 265.851 19.4667C305.046 9.58627 343.074 39.2177 343.074 79.6389V235.02C343.074 261.62 371.015 278.965 394.853 267.163C420.274 254.578 450.151 254.763 475.414 267.663L491.706 275.982C502.358 281.422 515.038 281.114 525.414 275.164L562.34 253.99C565.723 252.05 569.974 252.533 572.837 255.182C577.397 259.403 576.353 266.877 570.811 269.686L527.69 291.543C515.782 297.579 501.732 297.677 489.74 291.809L468.583 281.455C447.493 271.135 422.883 270.835 401.548 280.637L399.814 281.434C366.963 296.528 329.435 272.887 328.863 236.739L326.428 82.7158C325.907 49.7197 292.251 27.5347 261.538 39.6089C247.977 44.9404 238.94 58.0747 238.94 72.6463Z" stroke="black" stroke-width="1.53615" shape-rendering="crispEdges"/>
</g>
<g filter="url(#filter29_d_2003_7)">
<g filter="url(#filter30_d_2003_7)">
<path d="M254.387 692.947L162.795 645.675C151.908 640.056 151.707 624.559 162.444 618.66L239.854 576.128C250.5 570.279 263.396 570.273 274.047 576.113L356.555 621.353C367.816 627.528 367.674 643.754 356.305 649.73L274.226 692.873C268.021 696.134 260.616 696.162 254.387 692.947Z" fill="#7B5CF7"/>
<path d="M254.387 692.947L162.795 645.675C151.908 640.056 151.707 624.559 162.444 618.66L239.854 576.128C250.5 570.279 263.396 570.273 274.047 576.113L356.555 621.353C367.816 627.528 367.674 643.754 356.305 649.73L274.226 692.873C268.021 696.134 260.616 696.162 254.387 692.947Z" stroke="black" stroke-width="2.35473"/>
</g>
<g filter="url(#filter31_i_2003_7)">
<path d="M251.508 671.974L175.528 630.885C170.548 628.192 170.564 621.04 175.556 618.369L244.06 581.708C252.382 577.254 262.372 577.222 270.723 581.622L346.794 621.705C351.796 624.34 351.866 631.478 346.917 634.212L278.774 671.853C270.299 676.534 260.025 676.58 251.508 671.974Z" fill="#4D21FF"/>
</g>
<path d="M251.508 671.974L175.528 630.885C170.548 628.192 170.564 621.04 175.556 618.369L244.06 581.708C252.382 577.254 262.372 577.222 270.723 581.622L346.794 621.705C351.796 624.34 351.866 631.478 346.917 634.212L278.774 671.853C270.299 676.534 260.025 676.58 251.508 671.974Z" stroke="black" stroke-width="2.35473"/>
<g filter="url(#filter32_d_2003_7)">
<mask id="path-90-inside-2_2003_7" fill="white">
<path fill-rule="evenodd" clip-rule="evenodd" d="M270.439 656.312C297.947 656.312 320.247 643.861 320.247 628.503C320.247 613.144 297.947 600.693 270.439 600.693C242.93 600.693 220.63 613.144 220.63 628.503C220.63 643.861 242.93 656.312 270.439 656.312ZM270.502 634.061C275.408 634.061 279.385 631.674 279.385 628.731C279.385 625.787 275.408 623.401 270.502 623.401C265.597 623.401 261.62 625.787 261.62 628.731C261.62 631.674 265.597 634.061 270.502 634.061Z"/>
</mask>
<path fill-rule="evenodd" clip-rule="evenodd" d="M270.439 656.312C297.947 656.312 320.247 643.861 320.247 628.503C320.247 613.144 297.947 600.693 270.439 600.693C242.93 600.693 220.63 613.144 220.63 628.503C220.63 643.861 242.93 656.312 270.439 656.312ZM270.502 634.061C275.408 634.061 279.385 631.674 279.385 628.731C279.385 625.787 275.408 623.401 270.502 623.401C265.597 623.401 261.62 625.787 261.62 628.731C261.62 631.674 265.597 634.061 270.502 634.061Z" fill="#FF01C4"/>
<path d="M317.559 628.503C317.559 634.769 312.979 641.001 304.348 645.82C295.805 650.59 283.822 653.624 270.439 653.624V659C284.564 659 297.485 655.81 306.969 650.514C316.365 645.268 322.935 637.595 322.935 628.503H317.559ZM270.439 603.381C283.822 603.381 295.805 606.415 304.348 611.185C312.979 616.004 317.559 622.236 317.559 628.503H322.935C322.935 619.41 316.365 611.737 306.969 606.491C297.485 601.196 284.564 598.005 270.439 598.005V603.381ZM223.318 628.503C223.318 622.236 227.898 616.004 236.529 611.185C245.072 606.415 257.055 603.381 270.439 603.381V598.005C256.313 598.005 243.393 601.196 233.908 606.491C224.512 611.737 217.942 619.41 217.942 628.503H223.318ZM270.439 653.624C257.055 653.624 245.072 650.59 236.529 645.82C227.898 641.001 223.318 634.769 223.318 628.503H217.942C217.942 637.595 224.512 645.268 233.908 650.514C243.393 655.81 256.313 659 270.439 659V653.624ZM276.697 628.731C276.697 628.887 276.577 629.488 275.401 630.194C274.277 630.868 272.552 631.372 270.502 631.372V636.749C273.359 636.749 276.075 636.06 278.167 634.805C280.205 633.582 282.074 631.518 282.074 628.731H276.697ZM270.502 626.089C272.552 626.089 274.277 626.593 275.401 627.267C276.577 627.973 276.697 628.574 276.697 628.731H282.074C282.074 625.944 280.205 623.88 278.167 622.657C276.075 621.402 273.359 620.713 270.502 620.713V626.089ZM264.308 628.731C264.308 628.574 264.428 627.973 265.604 627.267C266.728 626.593 268.453 626.089 270.502 626.089V620.713C267.646 620.713 264.93 621.402 262.838 622.657C260.8 623.88 258.931 625.944 258.931 628.731H264.308ZM270.502 631.372C268.453 631.372 266.728 630.868 265.604 630.194C264.428 629.488 264.308 628.887 264.308 628.731H258.931C258.931 631.518 260.8 633.582 262.838 634.805C264.93 636.06 267.646 636.749 270.502 636.749V631.372Z" fill="black" mask="url(#path-90-inside-2_2003_7)"/>
<path d="M308.7 628.732C308.7 634.142 304.668 639.235 297.715 643.027C290.796 646.801 281.177 649.163 270.503 649.163C259.83 649.163 250.21 646.801 243.291 643.027C236.339 639.235 232.307 634.142 232.307 628.732C232.307 623.322 236.339 618.229 243.291 614.437C250.21 610.663 259.83 608.301 270.503 608.301C281.177 608.301 290.796 610.663 297.715 614.437C304.668 618.229 308.7 623.322 308.7 628.732Z" stroke="black" stroke-width="1.77659"/>
<path d="M302.038 628.732C302.038 633.403 298.624 637.726 292.9 640.906C287.191 644.078 279.273 646.054 270.503 646.054C261.734 646.054 253.816 644.078 248.107 640.906C242.382 637.726 238.969 633.403 238.969 628.732C238.969 624.061 242.382 619.738 248.107 616.558C253.816 613.386 261.734 611.41 270.503 611.41C279.273 611.41 287.191 613.386 292.9 616.558C298.624 619.738 302.038 624.061 302.038 628.732Z" stroke="black" stroke-width="0.888293"/>
<path d="M295.109 628.732C295.109 632.52 292.42 636.001 287.959 638.551C283.505 641.096 277.334 642.678 270.504 642.678C263.673 642.678 257.502 641.096 253.048 638.551C248.587 636.001 245.898 632.52 245.898 628.732C245.898 624.944 248.587 621.463 253.048 618.914C257.502 616.369 263.673 614.786 270.504 614.786C277.334 614.786 283.505 616.369 287.959 618.914C292.42 621.463 295.109 624.944 295.109 628.732Z" stroke="black" stroke-width="0.532976"/>
<path d="M288.181 628.731C288.181 631.631 286.221 634.271 283.02 636.192C279.821 638.111 275.396 639.301 270.504 639.301C265.611 639.301 261.186 638.111 257.987 636.192C254.786 634.271 252.827 631.631 252.827 628.731C252.827 625.831 254.786 623.19 257.987 621.269C261.186 619.35 265.611 618.16 270.504 618.16C275.396 618.16 279.821 619.35 283.02 621.269C286.221 623.19 288.181 625.831 288.181 628.731Z" stroke="black" stroke-width="0.177659"/>
</g>
<path d="M365.573 661.432V645.183C365.573 641.131 361.255 638.539 357.679 640.446L270.424 686.967C266.891 688.85 262.642 688.809 259.146 686.857L155.362 628.917C154.467 628.417 153.365 629.064 153.365 630.088V656.33C153.365 661.033 156.002 665.339 160.191 667.477L259.386 718.107C262.757 719.828 266.75 719.823 270.117 718.094L358.776 672.564C362.949 670.421 365.573 666.124 365.573 661.432Z" fill="#2606AA" stroke="black" stroke-width="2.35473"/>
<path d="M366.164 655.16V636.623C366.164 636.18 365.692 635.896 365.3 636.103L266.028 688.551V717.212C266.028 718.383 267.267 719.138 268.308 718.603L354.514 674.254C361.667 670.574 366.164 663.204 366.164 655.16Z" fill="#4D21FF" stroke="black" stroke-width="2.35473"/>
<path d="M280.534 684.718C284.131 684.718 286.243 685.06 287.428 685.612C288.004 685.88 288.326 686.183 288.507 686.49C288.688 686.797 288.763 687.167 288.74 687.635C288.716 688.109 288.592 688.653 288.401 689.279C288.266 689.725 288.106 690.187 287.934 690.681C287.863 690.885 287.791 691.094 287.717 691.31C287.223 692.76 286.715 694.427 286.715 696.198C286.715 697.952 287.141 699.608 287.541 701.052C287.576 701.177 287.61 701.3 287.644 701.42C288.012 702.74 288.313 703.819 288.297 704.721C288.29 705.191 288.194 705.575 287.996 705.896C287.799 706.215 287.471 706.521 286.922 706.788C285.795 707.336 283.832 707.677 280.534 707.677C278.973 707.677 277.438 706.542 276.261 704.443C275.093 702.362 274.353 699.448 274.353 696.198C274.353 692.947 275.093 690.033 276.261 687.952C277.438 685.853 278.973 684.718 280.534 684.718Z" fill="#2606AA" stroke="black" stroke-width="1.17736"/>
<path d="M234.89 675.9C231.293 675.9 229.181 676.241 227.996 676.793C227.42 677.062 227.098 677.364 226.917 677.671C226.736 677.978 226.661 678.349 226.685 678.816C226.708 679.29 226.832 679.834 227.023 680.461C227.158 680.906 227.318 681.368 227.49 681.862C227.561 682.066 227.633 682.276 227.707 682.492C228.201 683.941 228.709 685.608 228.709 687.379C228.709 689.133 228.283 690.789 227.883 692.234C227.848 692.358 227.814 692.481 227.78 692.602C227.412 693.922 227.111 695.001 227.127 695.902C227.135 696.373 227.231 696.756 227.428 697.077C227.626 697.397 227.953 697.702 228.502 697.969C229.629 698.518 231.592 698.858 234.89 698.858C236.452 698.858 237.986 697.724 239.164 695.624C240.331 693.544 241.071 690.63 241.071 687.379C241.071 684.128 240.331 681.214 239.164 679.134C237.986 677.034 236.452 675.9 234.89 675.9Z" fill="#101010" stroke="black" stroke-width="1.17736"/>
<path d="M286.422 684.718C287.983 684.718 289.517 685.853 290.695 687.952C291.862 690.033 292.603 692.947 292.603 696.198C292.603 699.448 291.862 702.362 290.695 704.443C289.517 706.542 287.983 707.677 286.422 707.677C284.86 707.677 283.326 706.542 282.148 704.443C280.981 702.362 280.24 699.448 280.24 696.198C280.24 692.947 280.981 690.033 282.148 687.952C283.326 685.853 284.86 684.718 286.422 684.718Z" fill="#D1FF7D" stroke="black" stroke-width="1.17736"/>
<ellipse cx="286.417" cy="696.199" rx="6.76984" ry="3.82643" transform="rotate(-90 286.417 696.199)" fill="white"/>
<g filter="url(#filter33_d_2003_7)">
<path d="M264.582 618.311L257.029 587.342C256.653 585.802 257.819 584.318 259.403 584.318C260.662 584.318 261.714 585.273 261.836 586.525L264.932 618.251C264.953 618.471 264.634 618.525 264.582 618.311Z" fill="#D1FF7D"/>
<path d="M264.582 618.311L257.029 587.342C256.653 585.802 257.819 584.318 259.403 584.318C260.662 584.318 261.714 585.273 261.836 586.525L264.932 618.251C264.953 618.471 264.634 618.525 264.582 618.311Z" stroke="black" stroke-width="1.77659"/>
</g>
<path d="M203.884 613.631L244.746 590.536" stroke="black" stroke-width="3.55317" stroke-linecap="round"/>
<path d="M194.11 626.955L234.972 603.86" stroke="black" stroke-width="3.55317" stroke-linecap="round"/>
<path d="M229.866 675.9C231.427 675.9 232.962 677.034 234.139 679.134C235.306 681.214 236.047 684.128 236.047 687.379C236.047 690.63 235.306 693.544 234.139 695.624C232.962 697.724 231.427 698.858 229.866 698.858C228.304 698.858 226.77 697.724 225.592 695.624C224.425 693.544 223.685 690.63 223.685 687.379C223.685 684.128 224.425 681.214 225.592 679.134C226.77 677.034 228.304 675.9 229.866 675.9Z" fill="#D1FF7D" stroke="black" stroke-width="1.17736"/>
<path d="M231.421 676.7L230.533 687.36" stroke="black" stroke-width="1.77659" stroke-linecap="round"/>
<path d="M258.209 662.806L156.027 607.994C154.764 607.316 154.782 605.499 156.058 604.847L244.285 559.729C254.596 554.456 266.83 554.539 277.068 559.951L364.485 606.161C365.721 606.814 365.753 608.573 364.542 609.271L272.025 662.596C267.766 665.05 262.541 665.13 258.209 662.806Z" fill="white" fill-opacity="0.2"/>
<path d="M365.573 635.209V607.486C365.573 607.348 365.423 607.263 365.305 607.333L270.565 663.724C266.967 665.866 262.503 665.935 258.84 663.907L155.358 606.605C154.463 606.109 153.365 606.756 153.365 607.779V624.893C153.365 626.189 154.071 627.382 155.206 628.006L263.082 687.327C264.127 687.901 265.39 687.914 266.446 687.359L365.478 635.367C365.537 635.336 365.573 635.275 365.573 635.209Z" fill="white" fill-opacity="0.3"/>
<path d="M366.164 632.154V607.615C366.164 607.159 365.668 606.876 365.275 607.108L266.028 665.744V685.883C266.028 686.553 266.741 686.981 267.333 686.668L364.274 635.293C365.437 634.677 366.164 633.469 366.164 632.154Z" fill="white" fill-opacity="0.3"/>
</g>
<path d="M138.891 269.772C140.203 268.507 142.624 264.779 141.814 259.989" stroke="black" stroke-width="1.03668" stroke-linecap="round"/>
<path d="M48.3011 321.865C47.9887 320.07 46.2586 315.975 41.8378 313.961" stroke="black" stroke-width="1.03668" stroke-linecap="round"/>
<path d="M106.18 533.045C105.868 531.249 104.138 527.155 99.7167 525.141" stroke="black" stroke-width="1.03668" stroke-linecap="round"/>
<path d="M223.302 446.798C225.072 447.233 229.516 447.293 233.136 444.054" stroke="black" stroke-width="1.03668" stroke-linecap="round"/>
<defs>
<filter id="filter0_di_2003_7" x="454.306" y="471.111" width="213.093" height="146.937" filterUnits="userSpaceOnUse" color-interpolation-filters="sRGB">
<feFlood flood-opacity="0" result="BackgroundImageFix"/>
<feColorMatrix in="SourceAlpha" type="matrix" values="0 0 0 0 0 0 0 0 0 0 0 0 0 0 0 0 0 0 127 0" result="hardAlpha"/>
<feOffset dy="3.16517"/>
<feComposite in2="hardAlpha" operator="out"/>
<feColorMatrix type="matrix" values="0 0 0 0 0 0 0 0 0 0 0 0 0 0 0 0 0 0 1 0"/>
<feBlend mode="normal" in2="BackgroundImageFix" result="effect1_dropShadow_2003_7"/>
<feBlend mode="normal" in="SourceGraphic" in2="effect1_dropShadow_2003_7" result="shape"/>
<feColorMatrix in="SourceAlpha" type="matrix" values="0 0 0 0 0 0 0 0 0 0 0 0 0 0 0 0 0 0 127 0" result="hardAlpha"/>
<feOffset dx="3.64381" dy="3.64381"/>
<feComposite in2="hardAlpha" operator="arithmetic" k2="-1" k3="1"/>
<feColorMatrix type="matrix" values="0 0 0 0 1 0 0 0 0 0.984314 0 0 0 0 0.933333 0 0 0 1 0"/>
<feBlend mode="normal" in2="shape" result="effect2_innerShadow_2003_7"/>
</filter>
<filter id="filter1_d_2003_7" x="473.259" y="594.317" width="148.042" height="112.177" filterUnits="userSpaceOnUse" color-interpolation-filters="sRGB">
<feFlood flood-opacity="0" result="BackgroundImageFix"/>
<feColorMatrix in="SourceAlpha" type="matrix" values="0 0 0 0 0 0 0 0 0 0 0 0 0 0 0 0 0 0 127 0" result="hardAlpha"/>
<feOffset dy="5.81614"/>
<feComposite in2="hardAlpha" operator="out"/>
<feColorMatrix type="matrix" values="0 0 0 0 0 0 0 0 0 0 0 0 0 0 0 0 0 0 0.5 0"/>
<feBlend mode="normal" in2="BackgroundImageFix" result="effect1_dropShadow_2003_7"/>
<feBlend mode="normal" in="SourceGraphic" in2="effect1_dropShadow_2003_7" result="shape"/>
</filter>
<filter id="filter2_i_2003_7" x="541.16" y="608.746" width="44.1348" height="23.4454" filterUnits="userSpaceOnUse" color-interpolation-filters="sRGB">
<feFlood flood-opacity="0" result="BackgroundImageFix"/>
<feBlend mode="normal" in="SourceGraphic" in2="BackgroundImageFix" result="shape"/>
<feColorMatrix in="SourceAlpha" type="matrix" values="0 0 0 0 0 0 0 0 0 0 0 0 0 0 0 0 0 0 127 0" result="hardAlpha"/>
<feOffset dx="-2.18063" dy="4.36126"/>
<feComposite in2="hardAlpha" operator="arithmetic" k2="-1" k3="1"/>
<feColorMatrix type="matrix" values="0 0 0 0 0 0 0 0 0 0 0 0 0 0 0 0 0 0 1 0"/>
<feBlend mode="normal" in2="shape" result="effect1_innerShadow_2003_7"/>
</filter>
<filter id="filter3_d_2003_7" x="577.162" y="627.947" width="24.791" height="18.7346" filterUnits="userSpaceOnUse" color-interpolation-filters="sRGB">
<feFlood flood-opacity="0" result="BackgroundImageFix"/>
<feColorMatrix in="SourceAlpha" type="matrix" values="0 0 0 0 0 0 0 0 0 0 0 0 0 0 0 0 0 0 127 0" result="hardAlpha"/>
<feOffset dy="1.2117"/>
<feComposite in2="hardAlpha" operator="out"/>
<feColorMatrix type="matrix" values="0 0 0 0 0 0 0 0 0 0 0 0 0 0 0 0 0 0 1 0"/>
<feBlend mode="normal" in2="BackgroundImageFix" result="effect1_dropShadow_2003_7"/>
<feBlend mode="normal" in="SourceGraphic" in2="effect1_dropShadow_2003_7" result="shape"/>
</filter>
<filter id="filter4_i_2003_7" x="552.122" y="642.478" width="13.9345" height="7.75488" filterUnits="userSpaceOnUse" color-interpolation-filters="sRGB">
<feFlood flood-opacity="0" result="BackgroundImageFix"/>
<feBlend mode="normal" in="SourceGraphic" in2="BackgroundImageFix" result="shape"/>
<feColorMatrix in="SourceAlpha" type="matrix" values="0 0 0 0 0 0 0 0 0 0 0 0 0 0 0 0 0 0 127 0" result="hardAlpha"/>
<feOffset dx="-1.42596" dy="4.84678"/>
<feComposite in2="hardAlpha" operator="arithmetic" k2="-1" k3="1"/>
<feColorMatrix type="matrix" values="0 0 0 0 0.0625 0 0 0 0 0.0625 0 0 0 0 0.0625 0 0 0 1 0"/>
<feBlend mode="normal" in2="shape" result="effect1_innerShadow_2003_7"/>
</filter>
<filter id="filter5_i_2003_7" x="522.314" y="628.058" width="13.9345" height="7.75488" filterUnits="userSpaceOnUse" color-interpolation-filters="sRGB">
<feFlood flood-opacity="0" result="BackgroundImageFix"/>
<feBlend mode="normal" in="SourceGraphic" in2="BackgroundImageFix" result="shape"/>
<feColorMatrix in="SourceAlpha" type="matrix" values="0 0 0 0 0 0 0 0 0 0 0 0 0 0 0 0 0 0 127 0" result="hardAlpha"/>
<feOffset dx="-1.42596" dy="4.84678"/>
<feComposite in2="hardAlpha" operator="arithmetic" k2="-1" k3="1"/>
<feColorMatrix type="matrix" values="0 0 0 0 0.0625 0 0 0 0 0.0625 0 0 0 0 0.0625 0 0 0 1 0"/>
<feBlend mode="normal" in2="shape" result="effect1_innerShadow_2003_7"/>
</filter>
<filter id="filter6_d_2003_7" x="523.888" y="621.958" width="10.6819" height="12.9889" filterUnits="userSpaceOnUse" color-interpolation-filters="sRGB">
<feFlood flood-opacity="0" result="BackgroundImageFix"/>
<feColorMatrix in="SourceAlpha" type="matrix" values="0 0 0 0 0 0 0 0 0 0 0 0 0 0 0 0 0 0 127 0" result="hardAlpha"/>
<feOffset dy="0.355947"/>
<feComposite in2="hardAlpha" operator="out"/>
<feColorMatrix type="matrix" values="0 0 0 0 0 0 0 0 0 0 0 0 0 0 0 0 0 0 1 0"/>
<feBlend mode="normal" in2="BackgroundImageFix" result="effect1_dropShadow_2003_7"/>
<feBlend mode="normal" in="SourceGraphic" in2="effect1_dropShadow_2003_7" result="shape"/>
</filter>
<filter id="filter7_d_2003_7" x="551.499" y="631.083" width="16.0099" height="18.6842" filterUnits="userSpaceOnUse" color-interpolation-filters="sRGB">
<feFlood flood-opacity="0" result="BackgroundImageFix"/>
<feColorMatrix in="SourceAlpha" type="matrix" values="0 0 0 0 0 0 0 0 0 0 0 0 0 0 0 0 0 0 127 0" result="hardAlpha"/>
<feOffset dy="0.582859"/>
<feComposite in2="hardAlpha" operator="out"/>
<feColorMatrix type="matrix" values="0 0 0 0 0 0 0 0 0 0 0 0 0 0 0 0 0 0 1 0"/>
<feBlend mode="normal" in2="BackgroundImageFix" result="effect1_dropShadow_2003_7"/>
<feBlend mode="normal" in="SourceGraphic" in2="effect1_dropShadow_2003_7" result="shape"/>
</filter>
<filter id="filter8_i_2003_7" x="551.499" y="631.083" width="16.0098" height="8.93884" filterUnits="userSpaceOnUse" color-interpolation-filters="sRGB">
<feFlood flood-opacity="0" result="BackgroundImageFix"/>
<feBlend mode="normal" in="SourceGraphic" in2="BackgroundImageFix" result="shape"/>
<feColorMatrix in="SourceAlpha" type="matrix" values="0 0 0 0 0 0 0 0 0 0 0 0 0 0 0 0 0 0 127 0" result="hardAlpha"/>
<feOffset dx="-1.74858" dy="1.74858"/>
<feComposite in2="hardAlpha" operator="arithmetic" k2="-1" k3="1"/>
<feColorMatrix type="matrix" values="0 0 0 0 1 0 0 0 0 0.984314 0 0 0 0 0.933333 0 0 0 1 0"/>
<feBlend mode="normal" in2="shape" result="effect1_innerShadow_2003_7"/>
</filter>
<filter id="filter9_d_2003_7" x="524.755" y="596.908" width="21.0681" height="18.3669" filterUnits="userSpaceOnUse" color-interpolation-filters="sRGB">
<feFlood flood-opacity="0" result="BackgroundImageFix"/>
<feColorMatrix in="SourceAlpha" type="matrix" values="0 0 0 0 0 0 0 0 0 0 0 0 0 0 0 0 0 0 127 0" result="hardAlpha"/>
<feOffset dy="0.71433"/>
<feComposite in2="hardAlpha" operator="out"/>
<feColorMatrix type="matrix" values="0 0 0 0 0 0 0 0 0 0 0 0 0 0 0 0 0 0 1 0"/>
<feBlend mode="normal" in2="BackgroundImageFix" result="effect1_dropShadow_2003_7"/>
<feBlend mode="normal" in="SourceGraphic" in2="effect1_dropShadow_2003_7" result="shape"/>
</filter>
<filter id="filter10_i_2003_7" x="524.755" y="596.908" width="21.0679" height="11.7629" filterUnits="userSpaceOnUse" color-interpolation-filters="sRGB">
<feFlood flood-opacity="0" result="BackgroundImageFix"/>
<feBlend mode="normal" in="SourceGraphic" in2="BackgroundImageFix" result="shape"/>
<feColorMatrix in="SourceAlpha" type="matrix" values="0 0 0 0 0 0 0 0 0 0 0 0 0 0 0 0 0 0 127 0" result="hardAlpha"/>
<feOffset dx="-2.14299" dy="2.14299"/>
<feComposite in2="hardAlpha" operator="arithmetic" k2="-1" k3="1"/>
<feColorMatrix type="matrix" values="0 0 0 0 1 0 0 0 0 0.984314 0 0 0 0 0.933333 0 0 0 1 0"/>
<feBlend mode="normal" in2="shape" result="effect1_innerShadow_2003_7"/>
</filter>
<filter id="filter11_d_2003_7" x="521.463" y="617.033" width="16.0099" height="12.1541" filterUnits="userSpaceOnUse" color-interpolation-filters="sRGB">
<feFlood flood-opacity="0" result="BackgroundImageFix"/>
<feColorMatrix in="SourceAlpha" type="matrix" values="0 0 0 0 0 0 0 0 0 0 0 0 0 0 0 0 0 0 127 0" result="hardAlpha"/>
<feOffset dy="0.582859"/>
<feComposite in2="hardAlpha" operator="out"/>
<feColorMatrix type="matrix" values="0 0 0 0 0 0 0 0 0 0 0 0 0 0 0 0 0 0 1 0"/>
<feBlend mode="normal" in2="BackgroundImageFix" result="effect1_dropShadow_2003_7"/>
<feBlend mode="normal" in="SourceGraphic" in2="effect1_dropShadow_2003_7" result="shape"/>
</filter>
<filter id="filter12_i_2003_7" x="521.463" y="617.033" width="16.0098" height="8.93884" filterUnits="userSpaceOnUse" color-interpolation-filters="sRGB">
<feFlood flood-opacity="0" result="BackgroundImageFix"/>
<feBlend mode="normal" in="SourceGraphic" in2="BackgroundImageFix" result="shape"/>
<feColorMatrix in="SourceAlpha" type="matrix" values="0 0 0 0 0 0 0 0 0 0 0 0 0 0 0 0 0 0 127 0" result="hardAlpha"/>
<feOffset dx="-1.74858" dy="1.74858"/>
<feComposite in2="hardAlpha" operator="arithmetic" k2="-1" k3="1"/>
<feColorMatrix type="matrix" values="0 0 0 0 1 0 0 0 0 0.984314 0 0 0 0 0.933333 0 0 0 1 0"/>
<feBlend mode="normal" in2="shape" result="effect1_innerShadow_2003_7"/>
</filter>
<filter id="filter13_d_2003_7" x="317.618" y="310.506" width="183.314" height="263.199" filterUnits="userSpaceOnUse" color-interpolation-filters="sRGB">
<feFlood flood-opacity="0" result="BackgroundImageFix"/>
<feColorMatrix in="SourceAlpha" type="matrix" values="0 0 0 0 0 0 0 0 0 0 0 0 0 0 0 0 0 0 127 0" result="hardAlpha"/>
<feOffset dx="1.5643" dy="12.5144"/>
<feComposite in2="hardAlpha" operator="out"/>
<feColorMatrix type="matrix" values="0 0 0 0 0 0 0 0 0 0 0 0 0 0 0 0 0 0 1 0"/>
<feBlend mode="normal" in2="BackgroundImageFix" result="effect1_dropShadow_2003_7"/>
<feBlend mode="normal" in="SourceGraphic" in2="effect1_dropShadow_2003_7" result="shape"/>
</filter>
<filter id="filter14_d_2003_7" x="317.618" y="326.303" width="153.593" height="234.075" filterUnits="userSpaceOnUse" color-interpolation-filters="sRGB">
<feFlood flood-opacity="0" result="BackgroundImageFix"/>
<feColorMatrix in="SourceAlpha" type="matrix" values="0 0 0 0 0 0 0 0 0 0 0 0 0 0 0 0 0 0 127 0" result="hardAlpha"/>
<feOffset dx="6.25718"/>
<feComposite in2="hardAlpha" operator="out"/>
<feColorMatrix type="matrix" values="0 0 0 0 0 0 0 0 0 0 0 0 0 0 0 0 0 0 1 0"/>
<feBlend mode="normal" in2="BackgroundImageFix" result="effect1_dropShadow_2003_7"/>
<feBlend mode="normal" in="SourceGraphic" in2="effect1_dropShadow_2003_7" result="shape"/>
</filter>
<filter id="filter15_d_2003_7" x="337.153" y="487.504" width="71.866" height="60.1514" filterUnits="userSpaceOnUse" color-interpolation-filters="sRGB">
<feFlood flood-opacity="0" result="BackgroundImageFix"/>
<feColorMatrix in="SourceAlpha" type="matrix" values="0 0 0 0 0 0 0 0 0 0 0 0 0 0 0 0 0 0 127 0" result="hardAlpha"/>
<feOffset dy="-3.12859"/>
<feComposite in2="hardAlpha" operator="out"/>
<feColorMatrix type="matrix" values="0 0 0 0 0 0 0 0 0 0 0 0 0 0 0 0 0 0 1 0"/>
<feBlend mode="normal" in2="BackgroundImageFix" result="effect1_dropShadow_2003_7"/>
<feBlend mode="normal" in="SourceGraphic" in2="effect1_dropShadow_2003_7" result="shape"/>
</filter>
<filter id="filter16_di_2003_7" x="27.4855" y="251.835" width="217.446" height="353.466" filterUnits="userSpaceOnUse" color-interpolation-filters="sRGB">
<feFlood flood-opacity="0" result="BackgroundImageFix"/>
<feColorMatrix in="SourceAlpha" type="matrix" values="0 0 0 0 0 0 0 0 0 0 0 0 0 0 0 0 0 0 127 0" result="hardAlpha"/>
<feOffset dy="3.60201"/>
<feComposite in2="hardAlpha" operator="out"/>
<feColorMatrix type="matrix" values="0 0 0 0 0 0 0 0 0 0 0 0 0 0 0 0 0 0 1 0"/>
<feBlend mode="normal" in2="BackgroundImageFix" result="effect1_dropShadow_2003_7"/>
<feBlend mode="normal" in="SourceGraphic" in2="effect1_dropShadow_2003_7" result="shape"/>
<feColorMatrix in="SourceAlpha" type="matrix" values="0 0 0 0 0 0 0 0 0 0 0 0 0 0 0 0 0 0 127 0" result="hardAlpha"/>
<feOffset dx="4.1467" dy="4.1467"/>
<feComposite in2="hardAlpha" operator="arithmetic" k2="-1" k3="1"/>
<feColorMatrix type="matrix" values="0 0 0 0 1 0 0 0 0 0.984314 0 0 0 0 0.933333 0 0 0 1 0"/>
<feBlend mode="normal" in2="shape" result="effect2_innerShadow_2003_7"/>
</filter>
<filter id="filter17_d_2003_7" x="532.377" y="156.17" width="140.602" height="142.02" filterUnits="userSpaceOnUse" color-interpolation-filters="sRGB">
<feFlood flood-opacity="0" result="BackgroundImageFix"/>
<feColorMatrix in="SourceAlpha" type="matrix" values="0 0 0 0 0 0 0 0 0 0 0 0 0 0 0 0 0 0 127 0" result="hardAlpha"/>
<feOffset dy="16.624"/>
<feComposite in2="hardAlpha" operator="out"/>
<feColorMatrix type="matrix" values="0 0 0 0 0 0 0 0 0 0 0 0 0 0 0 0 0 0 0.5 0"/>
<feBlend mode="normal" in2="BackgroundImageFix" result="effect1_dropShadow_2003_7"/>
<feBlend mode="normal" in="SourceGraphic" in2="effect1_dropShadow_2003_7" result="shape"/>
</filter>
<filter id="filter18_di_2003_7" x="532.377" y="202.865" width="140.602" height="82.8514" filterUnits="userSpaceOnUse" color-interpolation-filters="sRGB">
<feFlood flood-opacity="0" result="BackgroundImageFix"/>
<feColorMatrix in="SourceAlpha" type="matrix" values="0 0 0 0 0 0 0 0 0 0 0 0 0 0 0 0 0 0 127 0" result="hardAlpha"/>
<feOffset dy="4.15071"/>
<feComposite in2="hardAlpha" operator="out"/>
<feColorMatrix type="matrix" values="0 0 0 0 0 0 0 0 0 0 0 0 0 0 0 0 0 0 1 0"/>
<feBlend mode="normal" in2="BackgroundImageFix" result="effect1_dropShadow_2003_7"/>
<feBlend mode="normal" in="SourceGraphic" in2="effect1_dropShadow_2003_7" result="shape"/>
<feColorMatrix in="SourceAlpha" type="matrix" values="0 0 0 0 0 0 0 0 0 0 0 0 0 0 0 0 0 0 127 0" result="hardAlpha"/>
<feOffset dx="-1.4608" dy="2.9216"/>
<feComposite in2="hardAlpha" operator="arithmetic" k2="-1" k3="1"/>
<feColorMatrix type="matrix" values="0 0 0 0 1 0 0 0 0 0.984314 0 0 0 0 0.933333 0 0 0 1 0"/>
<feBlend mode="normal" in2="shape" result="effect2_innerShadow_2003_7"/>
</filter>
<filter id="filter19_ii_2003_7" x="532.897" y="198.713" width="139.568" height="81.9766" filterUnits="userSpaceOnUse" color-interpolation-filters="sRGB">
<feFlood flood-opacity="0" result="BackgroundImageFix"/>
<feBlend mode="normal" in="SourceGraphic" in2="BackgroundImageFix" result="shape"/>
<feColorMatrix in="SourceAlpha" type="matrix" values="0 0 0 0 0 0 0 0 0 0 0 0 0 0 0 0 0 0 127 0" result="hardAlpha"/>
<feOffset dx="8.30142" dy="4.15071"/>
<feComposite in2="hardAlpha" operator="arithmetic" k2="-1" k3="1"/>
<feColorMatrix type="matrix" values="0 0 0 0 1 0 0 0 0 0.984314 0 0 0 0 0.933333 0 0 0 0.6 0"/>
<feBlend mode="normal" in2="shape" result="effect1_innerShadow_2003_7"/>
<feColorMatrix in="SourceAlpha" type="matrix" values="0 0 0 0 0 0 0 0 0 0 0 0 0 0 0 0 0 0 127 0" result="hardAlpha"/>
<feOffset dx="-8.30142" dy="2.07536"/>
<feComposite in2="hardAlpha" operator="arithmetic" k2="-1" k3="1"/>
<feColorMatrix type="matrix" values="0 0 0 0 1 0 0 0 0 0.984314 0 0 0 0 0.933333 0 0 0 0.8 0"/>
<feBlend mode="normal" in2="effect1_innerShadow_2003_7" result="effect2_innerShadow_2003_7"/>
</filter>
<filter id="filter20_di_2003_7" x="532.377" y="156.17" width="140.602" height="91.1528" filterUnits="userSpaceOnUse" color-interpolation-filters="sRGB">
<feFlood flood-opacity="0" result="BackgroundImageFix"/>
<feColorMatrix in="SourceAlpha" type="matrix" values="0 0 0 0 0 0 0 0 0 0 0 0 0 0 0 0 0 0 127 0" result="hardAlpha"/>
<feOffset dy="12.4521"/>
<feComposite in2="hardAlpha" operator="out"/>
<feColorMatrix type="matrix" values="0 0 0 0 0 0 0 0 0 0 0 0 0 0 0 0 0 0 1 0"/>
<feBlend mode="normal" in2="BackgroundImageFix" result="effect1_dropShadow_2003_7"/>
<feBlend mode="normal" in="SourceGraphic" in2="effect1_dropShadow_2003_7" result="shape"/>
<feColorMatrix in="SourceAlpha" type="matrix" values="0 0 0 0 0 0 0 0 0 0 0 0 0 0 0 0 0 0 127 0" result="hardAlpha"/>
<feOffset dx="-1.4608" dy="2.9216"/>
<feComposite in2="hardAlpha" operator="arithmetic" k2="-1" k3="1"/>
<feColorMatrix type="matrix" values="0 0 0 0 1 0 0 0 0 0.984314 0 0 0 0 0.933333 0 0 0 1 0"/>
<feBlend mode="normal" in2="shape" result="effect2_innerShadow_2003_7"/>
</filter>
<filter id="filter21_d_2003_7" x="577.007" y="54.3028" width="80.074" height="145.02" filterUnits="userSpaceOnUse" color-interpolation-filters="sRGB">
<feFlood flood-opacity="0" result="BackgroundImageFix"/>
<feColorMatrix in="SourceAlpha" type="matrix" values="0 0 0 0 0 0 0 0 0 0 0 0 0 0 0 0 0 0 127 0" result="hardAlpha"/>
<feOffset dx="-9.0451"/>
<feComposite in2="hardAlpha" operator="out"/>
<feColorMatrix type="matrix" values="0 0 0 0 0 0 0 0 0 0 0 0 0 0 0 0 0 0 1 0"/>
<feBlend mode="normal" in2="BackgroundImageFix" result="effect1_dropShadow_2003_7"/>
<feBlend mode="normal" in="SourceGraphic" in2="effect1_dropShadow_2003_7" result="shape"/>
</filter>
<filter id="filter22_di_2003_7" x="146.647" y="242.063" width="162.687" height="101.173" filterUnits="userSpaceOnUse" color-interpolation-filters="sRGB">
<feFlood flood-opacity="0" result="BackgroundImageFix"/>
<feColorMatrix in="SourceAlpha" type="matrix" values="0 0 0 0 0 0 0 0 0 0 0 0 0 0 0 0 0 0 127 0" result="hardAlpha"/>
<feOffset dy="11.5032"/>
<feComposite in2="hardAlpha" operator="out"/>
<feColorMatrix type="matrix" values="0 0 0 0 0 0 0 0 0 0 0 0 0 0 0 0 0 0 1 0"/>
<feBlend mode="normal" in2="BackgroundImageFix" result="effect1_dropShadow_2003_7"/>
<feBlend mode="normal" in="SourceGraphic" in2="effect1_dropShadow_2003_7" result="shape"/>
<feColorMatrix in="SourceAlpha" type="matrix" values="0 0 0 0 0 0 0 0 0 0 0 0 0 0 0 0 0 0 127 0" result="hardAlpha"/>
<feOffset dx="-1.34948" dy="2.69896"/>
<feComposite in2="hardAlpha" operator="arithmetic" k2="-1" k3="1"/>
<feColorMatrix type="matrix" values="0 0 0 0 1 0 0 0 0 0.984314 0 0 0 0 0.933333 0 0 0 1 0"/>
<feBlend mode="normal" in2="shape" result="effect2_innerShadow_2003_7"/>
</filter>
<filter id="filter23_di_2003_7" x="162.125" y="240.409" width="130.013" height="76.6116" filterUnits="userSpaceOnUse" color-interpolation-filters="sRGB">
<feFlood flood-opacity="0" result="BackgroundImageFix"/>
<feColorMatrix in="SourceAlpha" type="matrix" values="0 0 0 0 0 0 0 0 0 0 0 0 0 0 0 0 0 0 127 0" result="hardAlpha"/>
<feOffset dy="3.83811"/>
<feComposite in2="hardAlpha" operator="out"/>
<feColorMatrix type="matrix" values="0 0 0 0 0 0 0 0 0 0 0 0 0 0 0 0 0 0 1 0"/>
<feBlend mode="normal" in2="BackgroundImageFix" result="effect1_dropShadow_2003_7"/>
<feBlend mode="normal" in="SourceGraphic" in2="effect1_dropShadow_2003_7" result="shape"/>
<feColorMatrix in="SourceAlpha" type="matrix" values="0 0 0 0 0 0 0 0 0 0 0 0 0 0 0 0 0 0 127 0" result="hardAlpha"/>
<feOffset dx="-1.35078" dy="2.70157"/>
<feComposite in2="hardAlpha" operator="arithmetic" k2="-1" k3="1"/>
<feColorMatrix type="matrix" values="0 0 0 0 1 0 0 0 0 0.984314 0 0 0 0 0.933333 0 0 0 1 0"/>
<feBlend mode="normal" in2="shape" result="effect2_innerShadow_2003_7"/>
</filter>
<filter id="filter24_ii_2003_7" x="162.609" y="121.278" width="129.056" height="191.092" filterUnits="userSpaceOnUse" color-interpolation-filters="sRGB">
<feFlood flood-opacity="0" result="BackgroundImageFix"/>
<feBlend mode="normal" in="SourceGraphic" in2="BackgroundImageFix" result="shape"/>
<feColorMatrix in="SourceAlpha" type="matrix" values="0 0 0 0 0 0 0 0 0 0 0 0 0 0 0 0 0 0 127 0" result="hardAlpha"/>
<feOffset dx="7.67621" dy="3.83811"/>
<feComposite in2="hardAlpha" operator="arithmetic" k2="-1" k3="1"/>
<feColorMatrix type="matrix" values="0 0 0 0 1 0 0 0 0 0.984314 0 0 0 0 0.933333 0 0 0 0.6 0"/>
<feBlend mode="normal" in2="shape" result="effect1_innerShadow_2003_7"/>
<feColorMatrix in="SourceAlpha" type="matrix" values="0 0 0 0 0 0 0 0 0 0 0 0 0 0 0 0 0 0 127 0" result="hardAlpha"/>
<feOffset dx="-7.67621" dy="1.91905"/>
<feComposite in2="hardAlpha" operator="arithmetic" k2="-1" k3="1"/>
<feColorMatrix type="matrix" values="0 0 0 0 1 0 0 0 0 0.984314 0 0 0 0 0.933333 0 0 0 0.8 0"/>
<feBlend mode="normal" in2="effect1_innerShadow_2003_7" result="effect2_innerShadow_2003_7"/>
</filter>
<filter id="filter25_di_2003_7" x="162.125" y="81.9399" width="130.013" height="84.2878" filterUnits="userSpaceOnUse" color-interpolation-filters="sRGB">
<feFlood flood-opacity="0" result="BackgroundImageFix"/>
<feColorMatrix in="SourceAlpha" type="matrix" values="0 0 0 0 0 0 0 0 0 0 0 0 0 0 0 0 0 0 127 0" result="hardAlpha"/>
<feOffset dy="11.5143"/>
<feComposite in2="hardAlpha" operator="out"/>
<feColorMatrix type="matrix" values="0 0 0 0 0 0 0 0 0 0 0 0 0 0 0 0 0 0 1 0"/>
<feBlend mode="normal" in2="BackgroundImageFix" result="effect1_dropShadow_2003_7"/>
<feBlend mode="normal" in="SourceGraphic" in2="effect1_dropShadow_2003_7" result="shape"/>
<feColorMatrix in="SourceAlpha" type="matrix" values="0 0 0 0 0 0 0 0 0 0 0 0 0 0 0 0 0 0 127 0" result="hardAlpha"/>
<feOffset dx="-1.35078" dy="2.70157"/>
<feComposite in2="hardAlpha" operator="arithmetic" k2="-1" k3="1"/>
<feColorMatrix type="matrix" values="0 0 0 0 1 0 0 0 0 0.984314 0 0 0 0 0.933333 0 0 0 1 0"/>
<feBlend mode="normal" in2="shape" result="effect2_innerShadow_2003_7"/>
</filter>
<filter id="filter26_d_2003_7" x="212.69" y="100.826" width="31.5766" height="25.4756" filterUnits="userSpaceOnUse" color-interpolation-filters="sRGB">
<feFlood flood-opacity="0" result="BackgroundImageFix"/>
<feColorMatrix in="SourceAlpha" type="matrix" values="0 0 0 0 0 0 0 0 0 0 0 0 0 0 0 0 0 0 127 0" result="hardAlpha"/>
<feOffset dy="1.36833"/>
<feComposite in2="hardAlpha" operator="out"/>
<feColorMatrix type="matrix" values="0 0 0 0 0 0 0 0 0 0 0 0 0 0 0 0 0 0 1 0"/>
<feBlend mode="normal" in2="BackgroundImageFix" result="effect1_dropShadow_2003_7"/>
<feBlend mode="normal" in="SourceGraphic" in2="effect1_dropShadow_2003_7" result="shape"/>
</filter>
<filter id="filter27_i_2003_7" x="212.69" y="100.826" width="31.5764" height="17.6302" filterUnits="userSpaceOnUse" color-interpolation-filters="sRGB">
<feFlood flood-opacity="0" result="BackgroundImageFix"/>
<feBlend mode="normal" in="SourceGraphic" in2="BackgroundImageFix" result="shape"/>
<feColorMatrix in="SourceAlpha" type="matrix" values="0 0 0 0 0 0 0 0 0 0 0 0 0 0 0 0 0 0 127 0" result="hardAlpha"/>
<feOffset dx="-2.50567" dy="2.50567"/>
<feComposite in2="hardAlpha" operator="arithmetic" k2="-1" k3="1"/>
<feColorMatrix type="matrix" values="0 0 0 0 1 0 0 0 0 0.984314 0 0 0 0 0.933333 0 0 0 1 0"/>
<feBlend mode="normal" in2="shape" result="effect1_innerShadow_2003_7"/>
</filter>
<filter id="filter28_di_2003_7" x="218.197" y="16.7848" width="358.271" height="283.197" filterUnits="userSpaceOnUse" color-interpolation-filters="sRGB">
<feFlood flood-opacity="0" result="BackgroundImageFix"/>
<feColorMatrix in="SourceAlpha" type="matrix" values="0 0 0 0 0 0 0 0 0 0 0 0 0 0 0 0 0 0 127 0" result="hardAlpha"/>
<feOffset dy="3.0723"/>
<feComposite in2="hardAlpha" operator="out"/>
<feColorMatrix type="matrix" values="0 0 0 0 0 0 0 0 0 0 0 0 0 0 0 0 0 0 1 0"/>
<feBlend mode="normal" in2="BackgroundImageFix" result="effect1_dropShadow_2003_7"/>
<feBlend mode="normal" in="SourceGraphic" in2="effect1_dropShadow_2003_7" result="shape"/>
<feColorMatrix in="SourceAlpha" type="matrix" values="0 0 0 0 0 0 0 0 0 0 0 0 0 0 0 0 0 0 127 0" result="hardAlpha"/>
<feOffset dx="3.53689" dy="3.53689"/>
<feComposite in2="hardAlpha" operator="arithmetic" k2="-1" k3="1"/>
<feColorMatrix type="matrix" values="0 0 0 0 1 0 0 0 0 0.984314 0 0 0 0 0.933333 0 0 0 1 0"/>
<feBlend mode="normal" in2="shape" result="effect2_innerShadow_2003_7"/>
</filter>
<filter id="filter29_d_2003_7" x="152.188" y="555.832" width="215.153" height="174.159" filterUnits="userSpaceOnUse" color-interpolation-filters="sRGB">
<feFlood flood-opacity="0" result="BackgroundImageFix"/>
<feColorMatrix in="SourceAlpha" type="matrix" values="0 0 0 0 0 0 0 0 0 0 0 0 0 0 0 0 0 0 127 0" result="hardAlpha"/>
<feOffset dy="9.41891"/>
<feComposite in2="hardAlpha" operator="out"/>
<feColorMatrix type="matrix" values="0 0 0 0 0 0 0 0 0 0 0 0 0 0 0 0 0 0 0.5 0"/>
<feBlend mode="normal" in2="BackgroundImageFix" result="effect1_dropShadow_2003_7"/>
<feBlend mode="normal" in="SourceGraphic" in2="effect1_dropShadow_2003_7" result="shape"/>
</filter>
<filter id="filter30_d_2003_7" x="153.332" y="570.56" width="212.763" height="131.325" filterUnits="userSpaceOnUse" color-interpolation-filters="sRGB">
<feFlood flood-opacity="0" result="BackgroundImageFix"/>
<feColorMatrix in="SourceAlpha" type="matrix" values="0 0 0 0 0 0 0 0 0 0 0 0 0 0 0 0 0 0 127 0" result="hardAlpha"/>
<feOffset dy="5.36817"/>
<feComposite in2="hardAlpha" operator="out"/>
<feColorMatrix type="matrix" values="0 0 0 0 0 0 0 0 0 0 0 0 0 0 0 0 0 0 1 0"/>
<feBlend mode="normal" in2="BackgroundImageFix" result="effect1_dropShadow_2003_7"/>
<feBlend mode="normal" in="SourceGraphic" in2="effect1_dropShadow_2003_7" result="shape"/>
</filter>
<filter id="filter31_i_2003_7" x="170.625" y="577.167" width="181.14" height="99.4066" filterUnits="userSpaceOnUse" color-interpolation-filters="sRGB">
<feFlood flood-opacity="0" result="BackgroundImageFix"/>
<feBlend mode="normal" in="SourceGraphic" in2="BackgroundImageFix" result="shape"/>
<feColorMatrix in="SourceAlpha" type="matrix" values="0 0 0 0 0 0 0 0 0 0 0 0 0 0 0 0 0 0 127 0" result="hardAlpha"/>
<feOffset dy="7.10635"/>
<feComposite in2="hardAlpha" operator="arithmetic" k2="-1" k3="1"/>
<feColorMatrix type="matrix" values="0 0 0 0 0 0 0 0 0 0 0 0 0 0 0 0 0 0 1 0"/>
<feBlend mode="normal" in2="shape" result="effect1_innerShadow_2003_7"/>
</filter>
<filter id="filter32_d_2003_7" x="220.63" y="600.693" width="99.617" height="62.7259" filterUnits="userSpaceOnUse" color-interpolation-filters="sRGB">
<feFlood flood-opacity="0" result="BackgroundImageFix"/>
<feColorMatrix in="SourceAlpha" type="matrix" values="0 0 0 0 0 0 0 0 0 0 0 0 0 0 0 0 0 0 127 0" result="hardAlpha"/>
<feOffset dy="7.10635"/>
<feComposite in2="hardAlpha" operator="out"/>
<feColorMatrix type="matrix" values="0 0 0 0 0 0 0 0 0 0 0 0 0 0 0 0 0 0 1 0"/>
<feBlend mode="normal" in2="BackgroundImageFix" result="effect1_dropShadow_2003_7"/>
<feBlend mode="normal" in="SourceGraphic" in2="effect1_dropShadow_2003_7" result="shape"/>
</filter>
<filter id="filter33_d_2003_7" x="254.293" y="583.43" width="11.5292" height="36.7947" filterUnits="userSpaceOnUse" color-interpolation-filters="sRGB">
<feFlood flood-opacity="0" result="BackgroundImageFix"/>
<feColorMatrix in="SourceAlpha" type="matrix" values="0 0 0 0 0 0 0 0 0 0 0 0 0 0 0 0 0 0 127 0" result="hardAlpha"/>
<feOffset dx="-1.77659" dy="0.888293"/>
<feComposite in2="hardAlpha" operator="out"/>
<feColorMatrix type="matrix" values="0 0 0 0 0 0 0 0 0 0 0 0 0 0 0 0 0 0 1 0"/>
<feBlend mode="normal" in2="BackgroundImageFix" result="effect1_dropShadow_2003_7"/>
<feBlend mode="normal" in="SourceGraphic" in2="effect1_dropShadow_2003_7" result="shape"/>
</filter>
</defs>
</svg>
