<svg width="126" height="325" viewBox="0 0 126 325" fill="none" xmlns="http://www.w3.org/2000/svg">
<g filter="url(#filter0_di_2_1737)">
<ellipse cx="87.6122" cy="163.734" rx="45.8368" ry="25.2783" fill="#FFE0E0"/>
<path d="M132.902 163.734C132.902 170.424 127.978 176.597 119.759 181.13C111.56 185.652 100.195 188.465 87.6122 188.465C75.0291 188.465 63.6644 185.652 55.465 181.13C47.2461 176.597 42.3227 170.424 42.3227 163.734C42.3227 157.045 47.2461 150.872 55.465 146.339C63.6644 141.817 75.0291 139.003 87.6122 139.003C100.195 139.003 111.56 141.817 119.759 146.339C127.978 150.872 132.902 157.045 132.902 163.734Z" stroke="black" stroke-width="1.09454"/>
</g>
<g filter="url(#filter1_d_2_1737)">
<path d="M83.8668 123.821L74.2988 118.464C72.4953 117.455 72.5111 114.854 74.3265 113.866L81.1311 110.164C83.2972 108.986 85.9235 109.034 88.0454 110.29L95.788 114.875C97.5604 115.924 97.4895 118.513 95.6624 119.464L87.1936 123.871C86.1469 124.416 84.8964 124.397 83.8668 123.821Z" fill="#FFFBEE"/>
<path d="M83.8668 123.821L74.2988 118.464C72.4953 117.455 72.5111 114.854 74.3265 113.866L81.1311 110.164C83.2972 108.986 85.9235 109.034 88.0454 110.29L95.788 114.875C97.5604 115.924 97.4895 118.513 95.6624 119.464L87.1936 123.871C86.1469 124.416 84.8964 124.397 83.8668 123.821Z" stroke="black" stroke-width="0.875318"/>
</g>
<path d="M131.128 170.054L98.6362 164.883L85.8715 160.862L71.3662 163.16L96.3153 187.864C113.49 188.323 126.68 176.182 131.128 170.054Z" fill="#FFC247"/>
<path d="M97.9045 161.865V120.118C97.9045 119.445 97.1774 119.024 96.5939 119.358L87.8101 124.394C86.4266 125.187 84.7211 125.165 83.3587 124.336L72.4263 117.684C72.2805 117.596 72.0938 117.701 72.0938 117.871V161.16C72.0938 162.456 72.8091 163.645 73.9533 164.253L83.9406 169.555C84.9589 170.095 86.1781 170.1 87.2005 169.567L96.0213 164.97C97.1787 164.367 97.9045 163.17 97.9045 161.865Z" fill="#FFE0E0" stroke="black" stroke-width="3.12859"/>
<path d="M97.9051 162V119.36C97.9051 119.193 97.7252 119.088 97.5793 119.169L85.5679 125.899V168.991C85.5679 169.644 86.2574 170.067 86.8397 169.771L95.9899 165.122C97.1649 164.525 97.9051 163.318 97.9051 162Z" fill="#FFE0E0" stroke="black" stroke-width="3.12859"/>
<path d="M16.2459 74.1113L3.81948 70.1564C2.46165 69.7242 2.34158 67.8497 3.63319 67.2478L135.868 5.6318C143.577 2.03937 152.432 1.80639 160.32 4.98841C161.568 5.49199 161.61 7.24403 160.387 7.80657L16.2459 74.1113Z" fill="#7F5EFC" stroke="black" stroke-width="1.5643"/>
<path d="M93.8502 131.339V51.6967C93.8502 47.827 89.9506 45.1743 86.3514 46.5956L20.9718 72.4129C18.1229 73.5379 14.9604 73.579 12.0832 72.5284L3.59578 69.4293C2.70128 69.1027 1.75439 69.765 1.75439 70.7173V171.12C1.75439 177.186 5.93329 182.452 11.8403 183.831C14.8788 184.54 18.0708 184.137 20.8377 182.695L82.0509 150.794C89.3023 147.015 93.8502 139.517 93.8502 131.339Z" fill="#7F5EFC" stroke="black" stroke-width="1.5643"/>
<path d="M163.48 98.6962V7.33089C163.48 6.3259 162.435 5.6624 161.526 6.09024L16.5542 74.2966V179.889C16.5542 182.209 18.9894 183.722 21.0687 182.694L151.261 118.364C158.744 114.667 163.48 107.043 163.48 98.6962Z" fill="#FFE0E0" stroke="black" stroke-width="1.5643"/>
<g filter="url(#filter2_i_2_1737)">
<path d="M149.695 96.4845V24.5714C149.695 23.5651 148.647 22.9016 147.737 23.332L37.3325 75.5753C32.9595 77.6446 30.1709 82.0492 30.1709 86.8871V160.629C30.1709 164.701 34.4503 167.353 38.0961 165.541L137.52 116.13C144.978 112.423 149.695 104.813 149.695 96.4845Z" fill="#FFE0E0"/>
</g>
<path d="M149.695 96.4845V24.5714C149.695 23.5651 148.647 22.9016 147.737 23.332L37.3325 75.5753C32.9595 77.6446 30.1709 82.0492 30.1709 86.8871V160.629C30.1709 164.701 34.4503 167.353 38.0961 165.541L137.52 116.13C144.978 112.423 149.695 104.813 149.695 96.4845Z" stroke="black" stroke-width="3.12859"/>
<path d="M117.203 88.6762V65.3117C117.203 63.0039 114.789 61.4904 112.712 62.4953L77.7997 79.382C75.6395 80.4269 74.2671 82.6152 74.2671 85.0148V109.228C74.2671 111.563 76.7313 113.075 78.8126 112.018L113.78 94.2549C115.88 93.188 117.203 91.0319 117.203 88.6762Z" stroke="black" stroke-width="1.5643" stroke-linecap="round" stroke-dasharray="7.82 7.82"/>
<path d="M92.8339 111.929V97.4653C92.8339 95.1621 90.4294 93.6484 88.3526 94.6442L65.0543 105.816C62.8835 106.857 61.5024 109.05 61.5024 111.458V126.483C61.5024 128.813 63.9575 130.326 66.0382 129.278L89.391 117.518C91.5021 116.455 92.8339 114.293 92.8339 111.929Z" stroke="black" stroke-width="1.5643"/>
<path d="M55.7002 157.189V71.8132L37.4542 80.2089C33.0151 82.2515 30.1709 86.691 30.1709 91.5775V160.752C30.1709 164.793 34.3931 167.447 38.0343 165.694L55.7002 157.189Z" fill="#FFC247" stroke="black" stroke-width="3.12859"/>
<path d="M125.906 120.646L124.165 38.4919L142.376 29.7071C144.436 28.7135 146.831 30.1935 146.864 32.4802L147.738 93.5047C147.871 102.779 142.864 111.367 134.726 115.82L125.906 120.646Z" fill="#FFC247" stroke="black" stroke-width="3.12859"/>
<path d="M105.781 98.4217L111.293 103.879C113.268 105.835 116.622 104.435 116.622 101.656V99.882C116.622 99.1916 116.859 98.5221 117.293 97.9851C118.888 96.0112 117.483 93.0699 114.945 93.0699H107.983C105.188 93.0699 103.795 96.4553 105.781 98.4217Z" fill="#FF01C4" stroke="#101010" stroke-width="3.12859" stroke-linecap="round"/>
<mask id="mask0_2_1737" style="mask-type:alpha" maskUnits="userSpaceOnUse" x="29" y="22" width="122" height="145">
<path d="M149.695 96.4845V24.5714C149.695 23.5651 148.647 22.9016 147.737 23.332L37.3325 75.5753C32.9595 77.6446 30.1709 82.0492 30.1709 86.8871V160.629C30.1709 164.701 34.4503 167.353 38.0961 165.541L137.52 116.13C144.978 112.423 149.695 104.813 149.695 96.4845Z" fill="#4D21FF" stroke="black" stroke-width="1.5643"/>
</mask>
<g mask="url(#mask0_2_1737)">
<path opacity="0.2" d="M185.581 23.2033L118.137 229.531C117.615 231.128 118.447 232.852 120.022 233.437L142.912 241.932C144.527 242.532 146.323 241.713 146.929 240.1L232.199 13.336C233.107 10.9209 230.866 8.50655 228.39 9.23264L187.674 21.1732C186.684 21.4634 185.901 22.2229 185.581 23.2033Z" fill="white"/>
</g>
<g filter="url(#filter3_di_2_1737)">
<path d="M121.987 200.523L114.866 196.645C112.806 195.523 112.02 191.893 112.836 189.694C114.5 185.216 118.946 185.298 123.187 187.496L125.639 188.767C128.655 190.33 130.548 193.443 130.548 196.839C130.548 197.679 131.012 198.451 131.754 198.846L166.989 217.582C178.103 223.492 178.04 239.441 166.88 245.263L139.251 259.677L126.506 253.028L165.747 234.134C168.028 233.036 168.128 229.824 165.919 228.586L125 205.643C123.768 204.952 123.005 203.65 123.005 202.237C123.005 201.522 122.614 200.864 121.987 200.523Z" fill="#FFFBEE" fill-opacity="0.2" shape-rendering="crispEdges"/>
<path d="M121.987 200.523L114.866 196.645C112.806 195.523 112.02 191.893 112.836 189.694C114.5 185.216 118.946 185.298 123.187 187.496L125.639 188.767C128.655 190.33 130.548 193.443 130.548 196.839C130.548 197.679 131.012 198.451 131.754 198.846L166.989 217.582C178.103 223.492 178.04 239.441 166.88 245.263L139.251 259.677L126.506 253.028L165.747 234.134C168.028 233.036 168.128 229.824 165.919 228.586L125 205.643C123.768 204.952 123.005 203.65 123.005 202.237C123.005 201.522 122.614 200.864 121.987 200.523Z" stroke="black" stroke-width="1.801" shape-rendering="crispEdges"/>
</g>
<ellipse cx="126.486" cy="194.758" rx="2.32085" ry="2.29803" fill="#FFFBEE" fill-opacity="0.2"/>
<path d="M126.486 200.488C127.389 200.583 129.581 200.26 131.128 198.205" stroke="black" stroke-width="1.03668" stroke-linecap="round"/>
<g filter="url(#filter4_d_2_1737)">
<path d="M153.24 308.611L39.7661 253.802C38.2363 253.063 38.2044 250.895 39.7118 250.112L76.8143 230.824C83.9269 227.127 92.3672 227.003 99.5854 230.489L199.885 278.938C204.472 281.154 204.57 287.654 200.05 290.006L164.631 308.44C161.073 310.292 156.851 310.355 153.24 308.611Z" fill="#FFFBEE" stroke="black" stroke-width="3.17605"/>
<g filter="url(#filter5_i_2_1737)">
<path d="M151.888 302.175L51.751 253.921C50.2177 253.182 50.1874 251.01 51.6994 250.228L85.22 232.905C87.5253 231.714 90.2566 231.676 92.5943 232.803L194.71 282.012C196.243 282.751 196.274 284.923 194.763 285.705L163.241 302.014C159.693 303.85 155.488 303.909 151.888 302.175Z" fill="#FFC247"/>
</g>
<path d="M151.888 302.175L51.751 253.921C50.2177 253.182 50.1874 251.01 51.6994 250.228L85.22 232.905C87.5253 231.714 90.2566 231.676 92.5943 232.803L194.71 282.012C196.243 282.751 196.274 284.923 194.763 285.705L163.241 302.014C159.693 303.85 155.488 303.909 151.888 302.175Z" stroke="black" stroke-width="3.17605"/>
<g filter="url(#filter6_d_2_1737)">
<path d="M91.717 247.148L99.5653 243.058C100.553 242.543 101.184 241.525 101.212 240.411C101.227 239.819 100.593 239.429 100.075 239.716L92.1424 244.116C91.0341 244.731 89.6934 244.757 88.5616 244.187L78.6785 239.206C78.5512 239.142 78.4009 239.235 78.4009 239.377V240.274C78.4009 241.461 79.0864 242.541 80.1604 243.046L88.997 247.203C89.8626 247.61 90.8687 247.59 91.717 247.148Z" fill="white" stroke="black" stroke-width="0.765903"/>
<path d="M101.185 240.154L101.176 239.874C101.172 239.733 101.021 239.645 100.896 239.71L90.5854 245.099V247.387C90.5854 247.49 90.6942 247.556 90.7853 247.509L99.5335 242.971C100.581 242.428 101.223 241.332 101.185 240.154Z" fill="#FFE0E0" stroke="black" stroke-width="0.765903"/>
<path d="M89.1833 244.405L80.5254 240.118C78.8218 239.275 78.8209 236.845 80.5239 236.001L86.8065 232.885C88.5309 232.029 90.557 232.034 92.2774 232.897L99.2826 236.413C100.954 237.252 100.977 239.629 99.3223 240.5L91.9696 244.37C91.1002 244.828 90.0639 244.841 89.1833 244.405Z" fill="#603BF5" stroke="black" stroke-width="0.765903"/>
</g>
<g filter="url(#filter7_d_2_1737)">
<path d="M107.02 254.616L114.869 250.526C115.856 250.011 116.487 248.993 116.515 247.88C116.531 247.288 115.897 246.897 115.378 247.185L107.446 251.585C106.337 252.199 104.997 252.226 103.865 251.656L93.9817 246.675C93.8544 246.611 93.7041 246.703 93.7041 246.846V247.742C93.7041 248.929 94.3896 250.009 95.4636 250.514L104.3 254.672C105.166 255.079 106.172 255.058 107.02 254.616Z" fill="white" stroke="black" stroke-width="0.765903"/>
<path d="M116.488 247.622L116.479 247.343C116.475 247.201 116.324 247.114 116.199 247.179L105.889 252.567V254.856C105.889 254.958 105.997 255.024 106.089 254.977L114.837 250.44C115.884 249.897 116.526 248.801 116.488 247.622Z" fill="#FFE0E0" stroke="black" stroke-width="0.765903"/>
<path d="M104.487 251.873L95.8287 247.587C94.125 246.743 94.1241 244.314 95.8271 243.469L102.11 240.353C103.834 239.498 105.86 239.502 107.581 240.366L114.586 243.881C116.257 244.72 116.28 247.097 114.626 247.968L107.273 251.839C106.403 252.296 105.367 252.309 104.487 251.873Z" fill="#FFFBEE" stroke="black" stroke-width="0.765903"/>
</g>
<g filter="url(#filter8_d_2_1737)">
<path d="M78.0095 254.185L85.8578 250.095C86.8455 249.581 87.4762 248.563 87.5047 247.449C87.5199 246.857 86.8859 246.467 86.3678 246.754L78.4349 251.154C77.3266 251.769 75.9858 251.795 74.854 251.225L64.971 246.244C64.8437 246.18 64.6934 246.272 64.6934 246.415V247.311C64.6934 248.498 65.3789 249.578 66.4528 250.084L75.2895 254.241C76.1551 254.648 77.1612 254.627 78.0095 254.185Z" fill="white" stroke="black" stroke-width="0.765903"/>
<path d="M87.4775 247.191L87.4686 246.912C87.4641 246.771 87.3136 246.683 87.1885 246.748L76.8779 252.136V254.425C76.8779 254.527 76.9867 254.594 77.0778 254.546L85.826 250.009C86.873 249.466 87.5153 248.37 87.4775 247.191Z" fill="#FFE0E0" stroke="black" stroke-width="0.765903"/>
<path d="M75.4758 251.442L66.8179 247.156C65.1143 246.313 65.1134 243.883 66.8164 243.038L73.099 239.922C74.8234 239.067 76.8495 239.072 78.5699 239.935L85.5751 243.451C87.2463 244.289 87.2693 246.666 85.6148 247.537L78.2621 251.408C77.3926 251.865 76.3564 251.878 75.4758 251.442Z" fill="#FFFBEE" stroke="black" stroke-width="0.765903"/>
</g>
<g filter="url(#filter9_d_2_1737)">
<path d="M94.2556 262.228L102.104 258.138C103.092 257.624 103.722 256.606 103.751 255.492C103.766 254.9 103.132 254.51 102.614 254.797L94.681 259.197C93.5727 259.812 92.2319 259.838 91.1001 259.268L81.2171 254.287C81.0898 254.223 80.9395 254.316 80.9395 254.458V255.355C80.9395 256.541 81.625 257.622 82.6989 258.127L91.5356 262.284C92.4012 262.691 93.4073 262.671 94.2556 262.228Z" fill="white" stroke="black" stroke-width="0.765903"/>
<path d="M103.723 255.234L103.714 254.955C103.71 254.814 103.559 254.726 103.434 254.791L93.1235 260.18V262.468C93.1235 262.571 93.2323 262.637 93.3234 262.589L102.072 258.052C103.119 257.509 103.761 256.413 103.723 255.234Z" fill="#FFE0E0" stroke="black" stroke-width="0.765903"/>
<path d="M91.7219 259.486L83.064 255.199C81.3604 254.356 81.3595 251.926 83.0625 251.082L89.345 247.965C91.0695 247.11 93.0956 247.115 94.816 247.978L101.821 251.494C103.492 252.332 103.515 254.71 101.861 255.58L94.5082 259.451C93.6387 259.909 92.6025 259.922 91.7219 259.486Z" fill="#694BDF" stroke="black" stroke-width="0.765903"/>
</g>
<g filter="url(#filter10_d_2_1737)">
<path d="M123.266 262.085L131.115 257.995C132.102 257.48 132.733 256.462 132.762 255.348C132.777 254.756 132.143 254.366 131.625 254.653L123.692 259.053C122.583 259.668 121.243 259.694 120.111 259.124L110.228 254.143C110.1 254.079 109.95 254.172 109.95 254.314V255.211C109.95 256.398 110.636 257.478 111.71 257.983L120.546 262.14C121.412 262.547 122.418 262.527 123.266 262.085Z" fill="white" stroke="black" stroke-width="0.765903"/>
<path d="M132.734 255.091L132.725 254.811C132.721 254.67 132.57 254.582 132.445 254.648L122.135 260.036V262.324C122.135 262.427 122.244 262.493 122.335 262.446L131.083 257.908C132.13 257.365 132.772 256.27 132.734 255.091Z" fill="#FFE0E0" stroke="black" stroke-width="0.765903"/>
<path d="M120.733 259.342L112.075 255.055C110.371 254.212 110.37 251.783 112.073 250.938L118.356 247.822C120.08 246.966 122.106 246.971 123.827 247.834L130.832 251.35C132.503 252.189 132.526 254.566 130.872 255.437L123.519 259.307C122.649 259.765 121.613 259.778 120.733 259.342Z" fill="#FFFBEE" stroke="black" stroke-width="0.765903"/>
</g>
<g filter="url(#filter11_d_2_1737)">
<path d="M138.352 270.128L146.2 266.038C147.188 265.523 147.818 264.505 147.847 263.392C147.862 262.799 147.228 262.409 146.71 262.696L138.777 267.096C137.669 267.711 136.328 267.738 135.196 267.167L125.313 262.187C125.186 262.122 125.036 262.215 125.036 262.358V263.254C125.036 264.441 125.721 265.521 126.795 266.026L135.632 270.183C136.497 270.59 137.503 270.57 138.352 270.128Z" fill="white" stroke="black" stroke-width="0.765903"/>
<path d="M135.818 267.385L127.16 263.099C125.457 262.255 125.456 259.826 127.159 258.981L133.441 255.865C135.166 255.009 137.192 255.014 138.912 255.877L145.917 259.393C147.589 260.232 147.612 262.609 145.957 263.48L138.604 267.35C137.735 267.808 136.699 267.821 135.818 267.385Z" fill="#684BDC" stroke="black" stroke-width="0.765903"/>
</g>
<g filter="url(#filter12_d_2_1737)">
<path d="M118.271 263.746C118.271 264.975 117.363 266.225 115.589 267.206C113.837 268.174 111.374 268.793 108.617 268.793C105.86 268.793 103.396 268.174 101.645 267.206C99.8706 266.225 98.9621 264.975 98.9621 263.746C98.9621 262.136 98.9879 260.784 100.062 259.7C101.167 258.584 103.522 257.618 108.649 257.365C113.827 257.108 116.138 258.091 117.203 259.289C118.272 260.492 118.271 262.09 118.271 263.708V263.746Z" fill="#FFE0E0" stroke="black" stroke-width="1.30027"/>
<path d="M118.271 260.542C118.271 261.77 117.363 263.02 115.589 264.001C113.837 264.969 111.374 265.588 108.617 265.588C105.86 265.588 103.396 264.969 101.645 264.001C99.8706 263.02 98.9621 261.77 98.9621 260.542C98.9621 259.313 99.8706 258.063 101.645 257.082C103.396 256.114 105.86 255.495 108.617 255.495C111.374 255.495 113.837 256.114 115.589 257.082C117.363 258.063 118.271 259.313 118.271 260.542Z" fill="#FFFBEE" stroke="black" stroke-width="1.30027"/>
<ellipse cx="105.825" cy="260.503" rx="3.04017" ry="1.7367" fill="#A48DFD"/>
</g>
<g filter="url(#filter13_d_2_1737)">
<path d="M126.748 278.746L134.596 274.656C135.584 274.141 136.214 273.123 136.243 272.009C136.258 271.417 135.624 271.027 135.106 271.314L127.173 275.714C126.065 276.329 124.724 276.355 123.592 275.785L113.709 270.804C113.582 270.74 113.432 270.833 113.432 270.975V271.872C113.432 273.059 114.117 274.139 115.191 274.644L124.028 278.801C124.893 279.208 125.899 279.188 126.748 278.746Z" fill="white" stroke="black" stroke-width="0.765903"/>
<path d="M136.216 271.752L136.207 271.472C136.202 271.331 136.052 271.243 135.927 271.308L125.616 276.697V278.985C125.616 279.088 125.725 279.154 125.816 279.107L134.564 274.569C135.611 274.026 136.254 272.93 136.216 271.752Z" fill="#FFE0E0" stroke="black" stroke-width="0.765903"/>
<path d="M124.214 276.003L115.556 271.716C113.853 270.873 113.852 268.443 115.555 267.599L121.837 264.482C123.562 263.627 125.588 263.632 127.308 264.495L134.313 268.011C135.985 268.849 136.008 271.227 134.353 272.098L127 275.968C126.131 276.426 125.095 276.439 124.214 276.003Z" fill="#FFFBEE" stroke="black" stroke-width="0.765903"/>
</g>
<g filter="url(#filter14_d_2_1737)">
<path d="M67.5785 259.18L72.0402 256.78C73.0083 256.259 73.6231 255.258 73.6513 254.159C73.6667 253.558 73.0163 253.174 72.4981 253.478L68.0182 256.106C66.8967 256.764 65.5181 256.808 64.357 256.222L54.5272 251.269C54.3998 251.204 54.2495 251.297 54.2495 251.44V252.336C54.2495 253.523 54.935 254.603 56.009 255.108L64.8228 259.254C65.7013 259.668 66.7236 259.64 67.5785 259.18Z" fill="white" stroke="black" stroke-width="0.765903"/>
<path d="M73.7055 253.94L73.6965 253.66C73.692 253.519 73.5413 253.431 73.4162 253.497L66.4341 257.161V259.449C66.4341 259.552 66.5429 259.618 66.634 259.571L72.0548 256.757C73.1013 256.214 73.7432 255.118 73.7055 253.94Z" fill="#FFE0E0" stroke="black" stroke-width="0.765903"/>
<path d="M65.0856 256.493L56.593 252.289C54.8509 251.426 54.9003 248.925 56.6751 248.132L59.043 247.074C60.7214 246.324 62.6479 246.367 64.291 247.192L71.2739 250.696C72.9746 251.549 72.9602 253.982 71.2495 254.815L67.7865 256.502C66.9335 256.918 65.936 256.914 65.0856 256.493Z" fill="#FFFBEE" stroke="black" stroke-width="0.765903"/>
</g>
<g filter="url(#filter15_d_2_1737)">
<path d="M108.689 278.332L112.781 276.04C113.724 275.512 114.319 274.523 114.346 273.442C114.362 272.835 113.699 272.449 113.181 272.766L109.087 275.269C107.995 275.937 106.641 276.014 105.48 275.476L69.3169 258.723C69.19 258.664 69.0449 258.757 69.0449 258.897V259.773C69.0449 260.976 69.749 262.068 70.8449 262.564L105.929 278.45C106.816 278.851 107.84 278.807 108.689 278.332Z" fill="white" stroke="black" stroke-width="0.765903"/>
<path d="M114.882 272.743V272.566C114.882 272.45 114.761 272.375 114.657 272.425L107.049 276.12V278.409C107.049 278.511 107.157 278.578 107.248 278.531L113.217 275.468C114.239 274.944 114.882 273.892 114.882 272.743Z" fill="#FFE0E0" stroke="black" stroke-width="0.765903"/>
<path d="M105.911 276.25L70.6839 259.915C69.4872 259.36 69.4724 257.664 70.6593 257.089L75.8097 254.591C76.6679 254.174 77.6691 254.172 78.529 254.585L114.112 271.668C114.681 271.941 114.708 272.742 114.158 273.054L108.709 276.137C107.849 276.624 106.808 276.666 105.911 276.25Z" fill="#553BBE" stroke="black" stroke-width="0.765903"/>
</g>
<path d="M165.536 317.039L200.397 298.872C202.992 297.519 204.62 294.836 204.62 291.91C204.62 290.424 203.033 289.477 201.725 290.182L167.072 308.873C162.545 311.316 157.114 311.413 152.502 309.135L37.8176 252.501C37.36 252.275 36.8242 252.608 36.8242 253.119C36.8242 257.331 39.2261 261.174 43.0121 263.021L154.096 317.192C157.718 318.958 161.963 318.901 165.536 317.039Z" fill="#FFC247" stroke="black" stroke-width="3.17605"/>
<g filter="url(#filter16_d_2_1737)">
<path d="M124.439 286.756L128.901 284.356C129.869 283.835 130.484 282.834 130.512 281.735C130.528 281.135 129.877 280.75 129.359 281.054L124.879 283.682C123.758 284.34 122.379 284.384 121.218 283.799L111.388 278.845C111.261 278.781 111.11 278.873 111.11 279.016V279.912C111.11 281.099 111.796 282.179 112.87 282.684L121.684 286.831C122.562 287.244 123.584 287.216 124.439 286.756Z" fill="white" stroke="black" stroke-width="0.765903"/>
<path d="M130.566 281.516L130.557 281.236C130.553 281.095 130.402 281.007 130.277 281.073L123.295 284.737V287.025C123.295 287.128 123.404 287.194 123.495 287.147L128.916 284.333C129.962 283.79 130.604 282.695 130.566 281.516Z" fill="#FFE0E0" stroke="black" stroke-width="0.765903"/>
<path d="M121.946 284.07L113.454 279.865C111.712 279.003 111.761 276.501 113.536 275.708L115.904 274.65C117.582 273.9 119.509 273.943 121.152 274.768L128.135 278.272C129.835 279.126 129.821 281.558 128.11 282.392L124.647 284.078C123.794 284.494 122.797 284.491 121.946 284.07Z" fill="#FFFBEE" stroke="black" stroke-width="0.765903"/>
</g>
</g>
<defs>
<filter id="filter0_di_2_1737" x="41.7754" y="138.456" width="91.6733" height="69.3281" filterUnits="userSpaceOnUse" color-interpolation-filters="sRGB">
<feFlood flood-opacity="0" result="BackgroundImageFix"/>
<feColorMatrix in="SourceAlpha" type="matrix" values="0 0 0 0 0 0 0 0 0 0 0 0 0 0 0 0 0 0 127 0" result="hardAlpha"/>
<feOffset dy="18.7716"/>
<feComposite in2="hardAlpha" operator="out"/>
<feColorMatrix type="matrix" values="0 0 0 0 0 0 0 0 0 0 0 0 0 0 0 0 0 0 1 0"/>
<feBlend mode="normal" in2="BackgroundImageFix" result="effect1_dropShadow_2_1737"/>
<feBlend mode="normal" in="SourceGraphic" in2="effect1_dropShadow_2_1737" result="shape"/>
<feColorMatrix in="SourceAlpha" type="matrix" values="0 0 0 0 0 0 0 0 0 0 0 0 0 0 0 0 0 0 127 0" result="hardAlpha"/>
<feOffset dx="-1.45939" dy="2.91878"/>
<feComposite in2="hardAlpha" operator="arithmetic" k2="-1" k3="1"/>
<feColorMatrix type="matrix" values="0 0 0 0 1 0 0 0 0 0.984314 0 0 0 0 0.933333 0 0 0 1 0"/>
<feBlend mode="normal" in2="shape" result="effect2_innerShadow_2_1737"/>
</filter>
<filter id="filter1_d_2_1737" x="72.5181" y="108.875" width="24.9956" height="16.7044" filterUnits="userSpaceOnUse" color-interpolation-filters="sRGB">
<feFlood flood-opacity="0" result="BackgroundImageFix"/>
<feColorMatrix in="SourceAlpha" type="matrix" values="0 0 0 0 0 0 0 0 0 0 0 0 0 0 0 0 0 0 127 0" result="hardAlpha"/>
<feOffset dy="0.875318"/>
<feComposite in2="hardAlpha" operator="out"/>
<feColorMatrix type="matrix" values="0 0 0 0 0 0 0 0 0 0 0 0 0 0 0 0 0 0 1 0"/>
<feBlend mode="normal" in2="BackgroundImageFix" result="effect1_dropShadow_2_1737"/>
<feBlend mode="normal" in="SourceGraphic" in2="effect1_dropShadow_2_1737" result="shape"/>
</filter>
<filter id="filter2_i_2_1737" x="28.6064" y="21.6324" width="122.652" height="146.055" filterUnits="userSpaceOnUse" color-interpolation-filters="sRGB">
<feFlood flood-opacity="0" result="BackgroundImageFix"/>
<feBlend mode="normal" in="SourceGraphic" in2="BackgroundImageFix" result="shape"/>
<feColorMatrix in="SourceAlpha" type="matrix" values="0 0 0 0 0 0 0 0 0 0 0 0 0 0 0 0 0 0 127 0" result="hardAlpha"/>
<feOffset dx="-6.25718" dy="12.5144"/>
<feComposite in2="hardAlpha" operator="arithmetic" k2="-1" k3="1"/>
<feColorMatrix type="matrix" values="0 0 0 0 0 0 0 0 0 0 0 0 0 0 0 0 0 0 1 0"/>
<feBlend mode="normal" in2="shape" result="effect1_innerShadow_2_1737"/>
</filter>
<filter id="filter3_di_2_1737" x="111.618" y="185.127" width="64.5693" height="79.1675" filterUnits="userSpaceOnUse" color-interpolation-filters="sRGB">
<feFlood flood-opacity="0" result="BackgroundImageFix"/>
<feColorMatrix in="SourceAlpha" type="matrix" values="0 0 0 0 0 0 0 0 0 0 0 0 0 0 0 0 0 0 127 0" result="hardAlpha"/>
<feOffset dy="3.60201"/>
<feComposite in2="hardAlpha" operator="out"/>
<feColorMatrix type="matrix" values="0 0 0 0 0 0 0 0 0 0 0 0 0 0 0 0 0 0 1 0"/>
<feBlend mode="normal" in2="BackgroundImageFix" result="effect1_dropShadow_2_1737"/>
<feBlend mode="normal" in="SourceGraphic" in2="effect1_dropShadow_2_1737" result="shape"/>
<feColorMatrix in="SourceAlpha" type="matrix" values="0 0 0 0 0 0 0 0 0 0 0 0 0 0 0 0 0 0 127 0" result="hardAlpha"/>
<feOffset dx="4.1467" dy="4.1467"/>
<feComposite in2="hardAlpha" operator="arithmetic" k2="-1" k3="1"/>
<feColorMatrix type="matrix" values="0 0 0 0 1 0 0 0 0 0.984314 0 0 0 0 0.933333 0 0 0 1 0"/>
<feBlend mode="normal" in2="shape" result="effect2_innerShadow_2_1737"/>
</filter>
<filter id="filter4_d_2_1737" x="35.2363" y="226.372" width="172.504" height="97.7918" filterUnits="userSpaceOnUse" color-interpolation-filters="sRGB">
<feFlood flood-opacity="0" result="BackgroundImageFix"/>
<feColorMatrix in="SourceAlpha" type="matrix" values="0 0 0 0 0 0 0 0 0 0 0 0 0 0 0 0 0 0 127 0" result="hardAlpha"/>
<feOffset dy="3.92202"/>
<feComposite in2="hardAlpha" operator="out"/>
<feColorMatrix type="matrix" values="0 0 0 0 0 0 0 0 0 0 0 0 0 0 0 0 0 0 1 0"/>
<feBlend mode="normal" in2="BackgroundImageFix" result="effect1_dropShadow_2_1737"/>
<feBlend mode="normal" in="SourceGraphic" in2="effect1_dropShadow_2_1737" result="shape"/>
</filter>
<filter id="filter5_i_2_1737" x="48.9951" y="230.396" width="148.471" height="74.6265" filterUnits="userSpaceOnUse" color-interpolation-filters="sRGB">
<feFlood flood-opacity="0" result="BackgroundImageFix"/>
<feBlend mode="normal" in="SourceGraphic" in2="BackgroundImageFix" result="shape"/>
<feColorMatrix in="SourceAlpha" type="matrix" values="0 0 0 0 0 0 0 0 0 0 0 0 0 0 0 0 0 0 127 0" result="hardAlpha"/>
<feOffset dy="6.25718"/>
<feComposite in2="hardAlpha" operator="arithmetic" k2="-1" k3="1"/>
<feColorMatrix type="matrix" values="0 0 0 0 0 0 0 0 0 0 0 0 0 0 0 0 0 0 0.5 0"/>
<feBlend mode="normal" in2="shape" result="effect1_innerShadow_2_1737"/>
</filter>
<filter id="filter6_d_2_1737" x="78.0181" y="231.863" width="23.5776" height="16.9899" filterUnits="userSpaceOnUse" color-interpolation-filters="sRGB">
<feFlood flood-opacity="0" result="BackgroundImageFix"/>
<feColorMatrix in="SourceAlpha" type="matrix" values="0 0 0 0 0 0 0 0 0 0 0 0 0 0 0 0 0 0 127 0" result="hardAlpha"/>
<feOffset dy="0.945795"/>
<feComposite in2="hardAlpha" operator="out"/>
<feColorMatrix type="matrix" values="0 0 0 0 0 0 0 0 0 0 0 0 0 0 0 0 0 0 1 0"/>
<feBlend mode="normal" in2="BackgroundImageFix" result="effect1_dropShadow_2_1737"/>
<feBlend mode="normal" in="SourceGraphic" in2="effect1_dropShadow_2_1737" result="shape"/>
</filter>
<filter id="filter7_d_2_1737" x="93.3213" y="239.332" width="23.5776" height="16.9899" filterUnits="userSpaceOnUse" color-interpolation-filters="sRGB">
<feFlood flood-opacity="0" result="BackgroundImageFix"/>
<feColorMatrix in="SourceAlpha" type="matrix" values="0 0 0 0 0 0 0 0 0 0 0 0 0 0 0 0 0 0 127 0" result="hardAlpha"/>
<feOffset dy="0.945795"/>
<feComposite in2="hardAlpha" operator="out"/>
<feColorMatrix type="matrix" values="0 0 0 0 0 0 0 0 0 0 0 0 0 0 0 0 0 0 1 0"/>
<feBlend mode="normal" in2="BackgroundImageFix" result="effect1_dropShadow_2_1737"/>
<feBlend mode="normal" in="SourceGraphic" in2="effect1_dropShadow_2_1737" result="shape"/>
</filter>
<filter id="filter8_d_2_1737" x="64.3105" y="238.901" width="23.5776" height="16.99" filterUnits="userSpaceOnUse" color-interpolation-filters="sRGB">
<feFlood flood-opacity="0" result="BackgroundImageFix"/>
<feColorMatrix in="SourceAlpha" type="matrix" values="0 0 0 0 0 0 0 0 0 0 0 0 0 0 0 0 0 0 127 0" result="hardAlpha"/>
<feOffset dy="0.945795"/>
<feComposite in2="hardAlpha" operator="out"/>
<feColorMatrix type="matrix" values="0 0 0 0 0 0 0 0 0 0 0 0 0 0 0 0 0 0 1 0"/>
<feBlend mode="normal" in2="BackgroundImageFix" result="effect1_dropShadow_2_1737"/>
<feBlend mode="normal" in="SourceGraphic" in2="effect1_dropShadow_2_1737" result="shape"/>
</filter>
<filter id="filter9_d_2_1737" x="80.5566" y="246.944" width="23.5776" height="16.99" filterUnits="userSpaceOnUse" color-interpolation-filters="sRGB">
<feFlood flood-opacity="0" result="BackgroundImageFix"/>
<feColorMatrix in="SourceAlpha" type="matrix" values="0 0 0 0 0 0 0 0 0 0 0 0 0 0 0 0 0 0 127 0" result="hardAlpha"/>
<feOffset dy="0.945795"/>
<feComposite in2="hardAlpha" operator="out"/>
<feColorMatrix type="matrix" values="0 0 0 0 0 0 0 0 0 0 0 0 0 0 0 0 0 0 1 0"/>
<feBlend mode="normal" in2="BackgroundImageFix" result="effect1_dropShadow_2_1737"/>
<feBlend mode="normal" in="SourceGraphic" in2="effect1_dropShadow_2_1737" result="shape"/>
</filter>
<filter id="filter10_d_2_1737" x="109.567" y="246.801" width="23.5776" height="16.9899" filterUnits="userSpaceOnUse" color-interpolation-filters="sRGB">
<feFlood flood-opacity="0" result="BackgroundImageFix"/>
<feColorMatrix in="SourceAlpha" type="matrix" values="0 0 0 0 0 0 0 0 0 0 0 0 0 0 0 0 0 0 127 0" result="hardAlpha"/>
<feOffset dy="0.945795"/>
<feComposite in2="hardAlpha" operator="out"/>
<feColorMatrix type="matrix" values="0 0 0 0 0 0 0 0 0 0 0 0 0 0 0 0 0 0 1 0"/>
<feBlend mode="normal" in2="BackgroundImageFix" result="effect1_dropShadow_2_1737"/>
<feBlend mode="normal" in="SourceGraphic" in2="effect1_dropShadow_2_1737" result="shape"/>
</filter>
<filter id="filter11_d_2_1737" x="124.653" y="254.844" width="23.5776" height="16.9899" filterUnits="userSpaceOnUse" color-interpolation-filters="sRGB">
<feFlood flood-opacity="0" result="BackgroundImageFix"/>
<feColorMatrix in="SourceAlpha" type="matrix" values="0 0 0 0 0 0 0 0 0 0 0 0 0 0 0 0 0 0 127 0" result="hardAlpha"/>
<feOffset dy="0.945795"/>
<feComposite in2="hardAlpha" operator="out"/>
<feColorMatrix type="matrix" values="0 0 0 0 0 0 0 0 0 0 0 0 0 0 0 0 0 0 1 0"/>
<feBlend mode="normal" in2="BackgroundImageFix" result="effect1_dropShadow_2_1737"/>
<feBlend mode="normal" in="SourceGraphic" in2="effect1_dropShadow_2_1737" result="shape"/>
</filter>
<filter id="filter12_d_2_1737" x="98.312" y="254.845" width="20.6099" height="15.5446" filterUnits="userSpaceOnUse" color-interpolation-filters="sRGB">
<feFlood flood-opacity="0" result="BackgroundImageFix"/>
<feColorMatrix in="SourceAlpha" type="matrix" values="0 0 0 0 0 0 0 0 0 0 0 0 0 0 0 0 0 0 127 0" result="hardAlpha"/>
<feOffset dy="0.945795"/>
<feComposite in2="hardAlpha" operator="out"/>
<feColorMatrix type="matrix" values="0 0 0 0 0 0 0 0 0 0 0 0 0 0 0 0 0 0 1 0"/>
<feBlend mode="normal" in2="BackgroundImageFix" result="effect1_dropShadow_2_1737"/>
<feBlend mode="normal" in="SourceGraphic" in2="effect1_dropShadow_2_1737" result="shape"/>
</filter>
<filter id="filter13_d_2_1737" x="113.049" y="263.461" width="23.5776" height="16.99" filterUnits="userSpaceOnUse" color-interpolation-filters="sRGB">
<feFlood flood-opacity="0" result="BackgroundImageFix"/>
<feColorMatrix in="SourceAlpha" type="matrix" values="0 0 0 0 0 0 0 0 0 0 0 0 0 0 0 0 0 0 127 0" result="hardAlpha"/>
<feOffset dy="0.945795"/>
<feComposite in2="hardAlpha" operator="out"/>
<feColorMatrix type="matrix" values="0 0 0 0 0 0 0 0 0 0 0 0 0 0 0 0 0 0 1 0"/>
<feBlend mode="normal" in2="BackgroundImageFix" result="effect1_dropShadow_2_1737"/>
<feBlend mode="normal" in="SourceGraphic" in2="effect1_dropShadow_2_1737" result="shape"/>
</filter>
<filter id="filter14_d_2_1737" x="53.8667" y="246.158" width="20.2231" height="14.7578" filterUnits="userSpaceOnUse" color-interpolation-filters="sRGB">
<feFlood flood-opacity="0" result="BackgroundImageFix"/>
<feColorMatrix in="SourceAlpha" type="matrix" values="0 0 0 0 0 0 0 0 0 0 0 0 0 0 0 0 0 0 127 0" result="hardAlpha"/>
<feOffset dy="0.945795"/>
<feComposite in2="hardAlpha" operator="out"/>
<feColorMatrix type="matrix" values="0 0 0 0 0 0 0 0 0 0 0 0 0 0 0 0 0 0 1 0"/>
<feBlend mode="normal" in2="BackgroundImageFix" result="effect1_dropShadow_2_1737"/>
<feBlend mode="normal" in="SourceGraphic" in2="effect1_dropShadow_2_1737" result="shape"/>
</filter>
<filter id="filter15_d_2_1737" x="68.6621" y="253.894" width="46.6025" height="26.157" filterUnits="userSpaceOnUse" color-interpolation-filters="sRGB">
<feFlood flood-opacity="0" result="BackgroundImageFix"/>
<feColorMatrix in="SourceAlpha" type="matrix" values="0 0 0 0 0 0 0 0 0 0 0 0 0 0 0 0 0 0 127 0" result="hardAlpha"/>
<feOffset dy="0.945795"/>
<feComposite in2="hardAlpha" operator="out"/>
<feColorMatrix type="matrix" values="0 0 0 0 0 0 0 0 0 0 0 0 0 0 0 0 0 0 1 0"/>
<feBlend mode="normal" in2="BackgroundImageFix" result="effect1_dropShadow_2_1737"/>
<feBlend mode="normal" in="SourceGraphic" in2="effect1_dropShadow_2_1737" result="shape"/>
</filter>
<filter id="filter16_d_2_1737" x="110.728" y="273.734" width="20.2231" height="14.7577" filterUnits="userSpaceOnUse" color-interpolation-filters="sRGB">
<feFlood flood-opacity="0" result="BackgroundImageFix"/>
<feColorMatrix in="SourceAlpha" type="matrix" values="0 0 0 0 0 0 0 0 0 0 0 0 0 0 0 0 0 0 127 0" result="hardAlpha"/>
<feOffset dy="0.945795"/>
<feComposite in2="hardAlpha" operator="out"/>
<feColorMatrix type="matrix" values="0 0 0 0 0 0 0 0 0 0 0 0 0 0 0 0 0 0 1 0"/>
<feBlend mode="normal" in2="BackgroundImageFix" result="effect1_dropShadow_2_1737"/>
<feBlend mode="normal" in="SourceGraphic" in2="effect1_dropShadow_2_1737" result="shape"/>
</filter>
</defs>
</svg>
